<svg width="15" height="13" viewBox="0 0 15 13" fill="none" xmlns="http://www.w3.org/2000/svg">
    <path d="M11.512 6.21276C11.5714 6.27307 11.6422 6.32096 11.7202 6.35365C11.7983 6.38635 11.8821 6.40318 11.9668 6.40318C12.0514 6.40318 12.1352 6.38635 12.2133 6.35365C12.2914 6.32096 12.3622 6.27307 12.4216 6.21276L14.6237 3.99464C14.684 3.93525 14.7319 3.86445 14.7646 3.78638C14.7973 3.7083 14.8141 3.6245 14.8141 3.53985C14.8141 3.4552 14.7973 3.3714 14.7646 3.29333C14.7319 3.21525 14.684 3.14445 14.6237 3.08506L12.4216 0.882901C12.3009 0.762282 12.1374 0.694519 11.9668 0.694519C11.7962 0.694519 11.6326 0.762282 11.512 0.882901C11.3914 1.00352 11.3236 1.16711 11.3236 1.33769C11.3236 1.50827 11.3914 1.67187 11.512 1.79249L12.629 2.90952H10.6343C10.3334 2.91033 10.0358 2.97147 9.75893 3.08933C9.48209 3.20719 9.2317 3.37937 9.02258 3.5957L7.10766 5.57445L5.19274 3.5957C4.98362 3.37937 4.73324 3.20719 4.4564 3.08933C4.17956 2.97147 3.8819 2.91033 3.58102 2.90952H0.836304V4.18614H3.59698C3.72473 4.18581 3.85126 4.21106 3.9691 4.26039C4.08695 4.30972 4.19373 4.38214 4.28316 4.47337L6.22999 6.5L4.28316 8.52662C4.19373 8.61785 4.08695 8.69027 3.9691 8.7396C3.85126 8.78893 3.72473 8.81418 3.59698 8.81386H0.836304V10.0905H3.59698C3.89786 10.0897 4.19552 10.0285 4.47236 9.91066C4.74919 9.7928 4.99958 9.62062 5.2087 9.40429L7.12362 7.42554L9.03854 9.40429C9.24766 9.62062 9.49805 9.7928 9.77488 9.91066C10.0517 10.0285 10.3494 10.0897 10.6503 10.0905H12.629L11.512 11.2075C11.4523 11.2672 11.4049 11.3381 11.3726 11.4162C11.3402 11.4942 11.3236 11.5778 11.3236 11.6623C11.3236 11.7468 11.3402 11.8304 11.3726 11.9084C11.4049 11.9865 11.4523 12.0574 11.512 12.1171C11.5717 12.1768 11.6426 12.2242 11.7206 12.2565C11.7987 12.2888 11.8823 12.3055 11.9668 12.3055C12.0512 12.3055 12.1349 12.2888 12.2129 12.2565C12.2909 12.2242 12.3618 12.1768 12.4216 12.1171L14.6237 9.89898C14.684 9.83958 14.7319 9.76879 14.7646 9.69071C14.7973 9.61263 14.8141 9.52883 14.8141 9.44418C14.8141 9.35954 14.7973 9.27574 14.7646 9.19766C14.7319 9.11958 14.684 9.04878 14.6237 8.98939L12.4216 6.78723C12.3009 6.66661 12.1374 6.59885 11.9668 6.59885C11.7962 6.59885 11.6326 6.66661 11.512 6.78723C11.3914 6.90785 11.3236 7.07145 11.3236 7.24203C11.3236 7.41261 11.3914 7.5762 11.512 7.69682L12.629 8.81386H10.6343C10.5066 8.81418 10.38 8.78893 10.2622 8.7396C10.1443 8.69027 10.0376 8.61785 9.94812 8.52662L8.00129 6.5L9.94812 4.47337C10.0376 4.38214 10.1443 4.30972 10.2622 4.26039C10.38 4.21106 10.5066 4.18581 10.6343 4.18614H12.629L11.512 5.30317C11.4517 5.36257 11.4038 5.43336 11.3711 5.51144C11.3384 5.58952 11.3216 5.67332 11.3216 5.75796C11.3216 5.84261 11.3384 5.92641 11.3711 6.00449C11.4038 6.08257 11.4517 6.15336 11.512 6.21276Z" fill="white"/>
</svg>
