<svg width="20" height="19" viewBox="0 0 20 19" fill="none" xmlns="http://www.w3.org/2000/svg">
    <path d="M2.92647 18.1183C1.91716 18.1183 0.986354 17.5688 0.459272 16.7053C-0.135097 15.7296 -0.135097 14.5633 0.358342 13.5428L6.8964 2.84413C7.63656 1.75632 8.60101 0.881592 10.0028 0.881592C11.4046 0.881592 12.3691 1.75632 13.1092 2.84413L19.6137 13.4867C20.152 14.4848 20.1295 15.7408 19.5352 16.7053C19.0081 17.5688 18.0885 18.1183 17.068 18.1183H2.92647ZM10.0028 12.5335C10.5972 12.5335 11.0682 13.0157 11.0682 13.6101C11.0682 14.2044 10.5972 14.6754 10.0028 14.6754C9.40845 14.6754 8.92623 14.2044 8.92623 13.6101C8.92623 13.0157 9.40845 12.5335 10.0028 12.5335ZM10.0028 11.4681C9.61031 11.4681 9.32995 11.1429 9.28509 10.7504L8.92623 7.5318C8.87016 6.98229 9.45331 6.46642 10.0028 6.46642C10.5523 6.46642 11.1355 6.98229 11.0682 7.5318L10.7093 10.7504C10.6757 11.1317 10.4065 11.4681 10.0028 11.4681ZM2.92647 16.6941H17.068C17.595 16.6941 18.0436 16.4025 18.324 15.9539C18.6492 15.4156 18.638 14.7652 18.3801 14.2044L11.9205 3.64036C11.4607 2.96749 10.8888 2.30583 10.0028 2.30583C9.11688 2.30583 8.53372 2.96749 8.07393 3.64036L1.62558 14.2044C1.35643 14.7764 1.34522 15.4156 1.68165 15.9539C1.9508 16.4025 2.39938 16.6941 2.92647 16.6941Z" fill="#14112F"/>
</svg>
