<svg width="20" height="18" viewBox="0 0 20 18" fill="none" xmlns="http://www.w3.org/2000/svg">
    <path d="M2.92647 17.6183C1.91716 17.6183 0.986354 17.0688 0.459272 16.2053C-0.135097 15.2296 -0.135097 14.0633 0.358342 13.0428L6.8964 2.34413C7.63656 1.25632 8.60101 0.381592 10.0028 0.381592C11.4046 0.381592 12.3691 1.25632 13.1092 2.34413L19.6137 12.9867C20.152 13.9848 20.1295 15.2408 19.5352 16.2053C19.0081 17.0688 18.0885 17.6183 17.068 17.6183H2.92647ZM10.0028 12.0335C10.5972 12.0335 11.0682 12.5157 11.0682 13.1101C11.0682 13.7044 10.5972 14.1754 10.0028 14.1754C9.40845 14.1754 8.92623 13.7044 8.92623 13.1101C8.92623 12.5157 9.40845 12.0335 10.0028 12.0335ZM10.0028 10.9681C9.61031 10.9681 9.32995 10.6429 9.28509 10.2504L8.92623 7.0318C8.87016 6.48229 9.45331 5.96642 10.0028 5.96642C10.5523 5.96642 11.1355 6.48229 11.0682 7.0318L10.7093 10.2504C10.6757 10.6317 10.4065 10.9681 10.0028 10.9681ZM2.92647 16.1941H17.068C17.595 16.1941 18.0436 15.9025 18.324 15.4539C18.6492 14.9156 18.638 14.2652 18.3801 13.7044L11.9205 3.14036C11.4607 2.46749 10.8888 1.80583 10.0028 1.80583C9.11688 1.80583 8.53372 2.46749 8.07393 3.14036L1.62558 13.7044C1.35643 14.2764 1.34522 14.9156 1.68165 15.4539C1.9508 15.9025 2.39938 16.1941 2.92647 16.1941Z" fill="#FAA49E"/>
</svg>
