<svg width="26" height="19" viewBox="0 0 26 19" fill="none" xmlns="http://www.w3.org/2000/svg">
    <path d="M6.83211 18.5H1.25597C0.83845 18.5 0.5 18.1799 0.5 17.7851V12.5129C0.5 12.1181 0.83845 11.798 1.25597 11.798C1.67348 11.798 2.01193 12.1181 2.01193 12.5129V17.0699H6.83211C7.24963 17.0699 7.58808 17.3899 7.58808 17.7848C7.58808 18.1796 7.24963 18.5 6.83211 18.5ZM25.5 17.7851V12.5129C25.5 12.1181 25.1616 11.798 24.744 11.798C24.3265 11.798 23.9881 12.1181 23.9881 12.5129V17.0699H19.1679C18.7504 17.0699 18.4119 17.3899 18.4119 17.7848C18.4119 18.1796 18.7504 18.4997 19.1679 18.4997H24.744C25.1616 18.4997 25.5 18.1799 25.5 17.7851ZM25.5 6.48709V1.21492C25.5 0.820072 25.1616 0.5 24.744 0.5H19.1679C18.7504 0.5 18.4119 0.820072 18.4119 1.21492C18.4119 1.60976 18.7504 1.92983 19.1679 1.92983H23.9881V6.48709C23.9881 6.88194 24.3265 7.20201 24.744 7.20201C25.1616 7.20201 25.5 6.88194 25.5 6.48709ZM2.01193 6.48709V1.92983H6.83211C7.24963 1.92983 7.58808 1.60976 7.58808 1.21492C7.58808 0.820072 7.24963 0.5 6.83211 0.5H1.25597C0.83845 0.5 0.5 0.820072 0.5 1.21492V6.48709C0.5 6.88194 0.83845 7.20201 1.25597 7.20201C1.67348 7.20201 2.01193 6.88194 2.01193 6.48709ZM5.47237 14.5102V4.49012C5.47237 4.09527 5.13392 3.7752 4.71641 3.7752C4.29889 3.7752 3.96044 4.09527 3.96044 4.49012V14.5102C3.96044 14.905 4.29889 15.2251 4.71641 15.2251C5.13392 15.2251 5.47237 14.905 5.47237 14.5102ZM8.78562 10.8298V4.49041C8.78562 4.09557 8.44717 3.77549 8.02966 3.77549C7.61214 3.77549 7.27369 4.09557 7.27369 4.49041V10.8298C7.27369 11.2246 7.61214 11.5447 8.02966 11.5447C8.44717 11.5447 8.78562 11.2246 8.78562 10.8298ZM12.0989 10.8298V4.49041C12.0989 4.09557 11.7604 3.77549 11.3429 3.77549C10.9254 3.77549 10.5869 4.09557 10.5869 4.49041V10.8298C10.5869 11.2246 10.9254 11.5447 11.3429 11.5447C11.7604 11.5447 12.0989 11.2246 12.0989 10.8298ZM15.4134 14.5102V4.49012C15.4134 4.09527 15.0749 3.7752 14.6574 3.7752C14.2399 3.7752 13.9014 4.09527 13.9014 4.49012V14.5102C13.9014 14.905 14.2399 15.2251 14.6574 15.2251C15.0749 15.2251 15.4134 14.905 15.4134 14.5102ZM18.7266 10.8298V4.49041C18.7266 4.09557 18.3882 3.77549 17.9707 3.77549C17.5531 3.77549 17.2147 4.09557 17.2147 4.49041V10.8298C17.2147 11.2246 17.5531 11.5447 17.9707 11.5447C18.3882 11.5447 18.7266 11.2246 18.7266 10.8298ZM22.0411 14.5102V4.49012C22.0411 4.09527 21.7027 3.7752 21.2852 3.7752C20.8676 3.7752 20.5292 4.09527 20.5292 4.49012V14.5102C20.5292 14.905 20.8676 15.2251 21.2852 15.2251C21.7027 15.2251 22.0411 14.905 22.0411 14.5102ZM8.78562 14.5102V13.5402C8.78562 13.1454 8.44717 12.8253 8.02966 12.8253C7.61214 12.8253 7.27369 13.1454 7.27369 13.5402V14.5102C7.27369 14.905 7.61214 15.2251 8.02966 15.2251C8.44717 15.2251 8.78562 14.905 8.78562 14.5102ZM12.0989 14.5102V13.5402C12.0989 13.1454 11.7604 12.8253 11.3429 12.8253C10.9254 12.8253 10.5869 13.1454 10.5869 13.5402V14.5102C10.5869 14.905 10.9254 15.2251 11.3429 15.2251C11.7604 15.2251 12.0989 14.905 12.0989 14.5102ZM18.7266 14.5102V13.5402C18.7266 13.1454 18.3882 12.8253 17.9707 12.8253C17.5531 12.8253 17.2147 13.1454 17.2147 13.5402V14.5102C17.2147 14.905 17.5531 15.2251 17.9707 15.2251C18.3882 15.2251 18.7266 14.905 18.7266 14.5102Z" fill="black"/>
</svg>
