<svg width="18" height="17" viewBox="0 0 18 17" fill="none" xmlns="http://www.w3.org/2000/svg">
    <path d="M15.6554 3.89924H15.457L12.1718 0.415657C11.9293 0.151081 11.5324 0.129033 11.2678 0.371561L11.2458 0.393608C10.9812 0.636136 10.9592 1.05505 11.2017 1.31962L13.649 3.89924H4.56526L7.01259 1.31962C7.25511 1.05505 7.23307 0.636136 6.96849 0.393608C6.72596 0.151081 6.30705 0.151081 6.06452 0.393608L6.04248 0.415657L2.75733 3.89924H2.33842C1.01554 3.92128 -0.0427663 5.02368 0.00132966 6.36861C0.0233776 7.27258 0.552529 8.08835 1.34626 8.46317L2.36046 14.7689C2.5589 15.9374 3.5731 16.7973 4.76369 16.7973H13.2301C14.4207 16.7973 15.4349 15.9374 15.6333 14.7689L16.6476 8.46317C17.8381 7.88992 18.3452 6.43475 17.75 5.24416C17.3751 4.45044 16.5594 3.92128 15.6554 3.89924ZM3.68334 14.5484L2.71323 8.68365H4.43297L5.1826 15.4744H4.76369C4.21249 15.4965 3.74949 15.0996 3.68334 14.5484ZM11.797 8.68365L11.0474 15.4744H9.65834V8.68365H11.797ZM8.33547 15.4744H6.50548L5.75585 8.68365H8.33547V15.4744ZM14.3105 14.5484C14.2223 15.0776 13.7813 15.4744 13.2301 15.4744H12.3702L13.1199 8.68365H15.2806L14.3105 14.5484ZM15.6554 7.36077H2.33842C1.74312 7.27258 1.34626 6.72138 1.4124 6.14813C1.47854 5.66307 1.85336 5.31031 2.33842 5.22212H15.6554C16.2507 5.31031 16.6476 5.86151 16.5814 6.43475C16.4932 6.91981 16.1404 7.29463 15.6554 7.36077Z" fill="black"/>
</svg>
