<svg width="8" height="12" viewBox="0 0 8 12" fill="none" xmlns="http://www.w3.org/2000/svg">
    <path fill-rule="evenodd" clip-rule="evenodd" d="M5.81186 1.48886H1.0706C0.950286 1.48886 0.860803 1.53512 0.780892 1.61008L0.781337 1.61053C0.707101 1.6856 0.661024 1.78927 0.661024 1.90306V10.0969C0.661024 10.3246 0.845333 10.5111 1.0706 10.5111H6.92929C7.15344 10.5111 7.33886 10.3269 7.33886 10.0969V3.03309H6.02556C5.90758 3.03309 5.81186 2.9363 5.81186 2.81699V1.48886ZM5.87753 8.16328C6.15889 8.16328 6.15889 8.59548 5.87753 8.59548H2.12225C1.84089 8.59548 1.84089 8.16328 2.12225 8.16328H5.87753ZM5.87753 6.55601C6.15889 6.55601 6.15889 6.98822 5.87753 6.98822H2.12225C1.84089 6.98822 1.84089 6.55601 2.12225 6.55601H5.87753ZM5.87753 4.94875C6.15889 4.94875 6.15889 5.38096 5.87753 5.38096H2.12225C1.84089 5.38096 1.84089 4.94875 2.12225 4.94875H5.87753ZM7.03669 2.60089H6.23925V1.79444L7.03669 2.60089ZM6.1324 1.08558L7.74054 2.714L7.76636 2.81699V10.0969C7.76636 10.5624 7.39051 10.9433 6.9294 10.9433H1.0706C0.609382 10.9433 0.233643 10.5634 0.233643 10.0969V1.90306C0.233643 1.66985 0.327577 1.45825 0.479164 1.30495L0.47961 1.3054C0.631531 1.15188 0.84077 1.05666 1.0706 1.05666H6.02556L6.1324 1.08558Z" fill="white" stroke="white" stroke-width="0.4"/>
</svg>
