<svg width="22" height="20" viewBox="0 0 22 20" fill="none" xmlns="http://www.w3.org/2000/svg">
    <g id="Layer 2 1" clip-path="url(#clip0_105_6422)">
        <g id="Layer 2">
            <path id="Path 3719"
                d="M21.5 8.7823C21.5 8.52393 21.3972 8.27614 21.2141 8.09337C21.031 7.91061 20.7827 7.80782 20.5237 7.80762H1.47707C1.21794 7.80762 0.969415 7.91031 0.786178 8.09309C0.602941 8.27588 0.5 8.5238 0.5 8.7823V17.7973C0.5 18.2495 0.680065 18.6831 1.00058 19.0029C1.3211 19.3226 1.75581 19.5022 2.20909 19.5022H19.7909C20.2442 19.5022 20.6789 19.3226 20.9994 19.0029C21.3199 18.6831 21.5 18.2495 21.5 17.7973V8.7823ZM13.9599 12.3026L10.7043 15.551C10.6363 15.6189 10.5556 15.6728 10.4667 15.7096C10.3778 15.7463 10.2825 15.7653 10.1863 15.7653C10.0901 15.7653 9.9948 15.7463 9.90592 15.7096C9.81704 15.6728 9.73629 15.6189 9.66831 15.551L8.04011 13.9268C7.96911 13.8596 7.91231 13.7789 7.87307 13.6895C7.83384 13.6001 7.81296 13.5037 7.81166 13.4061C7.81037 13.3085 7.82869 13.2116 7.86554 13.1211C7.90239 13.0307 7.95703 12.9485 8.02623 12.8795C8.09543 12.8105 8.17779 12.756 8.26845 12.7192C8.35911 12.6824 8.45624 12.6642 8.55409 12.6655C8.65195 12.6667 8.74855 12.6876 8.83821 12.7267C8.92786 12.7659 9.00875 12.8225 9.07609 12.8933L10.1859 14.0012L12.9239 11.2691C13.0625 11.138 13.2469 11.0661 13.4379 11.0686C13.6289 11.0711 13.8113 11.1479 13.9464 11.2826C14.0814 11.4174 14.1584 11.5994 14.1609 11.7899C14.1635 11.9804 14.0913 12.1643 13.9599 12.3026Z"
                fill="#2B3C4C" />
            <path id="Path 3720"
                d="M21.5 4.15349C21.4994 3.70151 21.3191 3.26822 20.9987 2.94862C20.6783 2.62903 20.244 2.4492 19.7909 2.44858H19.5466V1.23101C19.5499 1.13305 19.5333 1.03545 19.4979 0.944005C19.4626 0.852561 19.4091 0.769143 19.3408 0.698713C19.2725 0.628283 19.1907 0.572279 19.1002 0.534031C19.0097 0.495784 18.9125 0.476074 18.8142 0.476074C18.716 0.476074 18.6187 0.495784 18.5283 0.534031C18.4378 0.572279 18.356 0.628283 18.2876 0.698713C18.2193 0.769143 18.1659 0.852561 18.1305 0.944005C18.0952 1.03545 18.0786 1.13305 18.0818 1.23101V2.44858H15.6399V1.23101C15.6431 1.13305 15.6266 1.03545 15.5912 0.944005C15.5559 0.852561 15.5024 0.769143 15.4341 0.698713C15.3658 0.628283 15.2839 0.572279 15.1935 0.534031C15.103 0.495784 15.0058 0.476074 14.9075 0.476074C14.8093 0.476074 14.712 0.495784 14.6215 0.534031C14.5311 0.572279 14.4493 0.628283 14.3809 0.698713C14.3126 0.769143 14.2592 0.852561 14.2238 0.944005C14.1884 1.03545 14.1719 1.13305 14.1751 1.23101V2.44858H11.7324V1.23101C11.7356 1.13305 11.7191 1.03545 11.6837 0.944005C11.6483 0.852561 11.5949 0.769143 11.5266 0.698713C11.4583 0.628283 11.3764 0.572279 11.286 0.534031C11.1955 0.495784 11.0983 0.476074 11 0.476074C10.9017 0.476074 10.8045 0.495784 10.714 0.534031C10.6236 0.572279 10.5417 0.628283 10.4734 0.698713C10.4051 0.769143 10.3517 0.852561 10.3163 0.944005C10.2809 1.03545 10.2644 1.13305 10.2676 1.23101V2.44858H7.82569V1.23101C7.81947 1.04138 7.73957 0.861595 7.6029 0.729648C7.46622 0.597701 7.28348 0.523932 7.09328 0.523932C6.90308 0.523932 6.72033 0.597701 6.58366 0.729648C6.44699 0.861595 6.36709 1.04138 6.36087 1.23101V2.44858H3.91661V1.23101C3.91983 1.13305 3.90327 1.03545 3.86791 0.944005C3.83255 0.852561 3.77911 0.769143 3.71079 0.698713C3.64246 0.628283 3.56063 0.572279 3.47017 0.534031C3.3797 0.495784 3.28245 0.476074 3.1842 0.476074C3.08595 0.476074 2.9887 0.495784 2.89824 0.534031C2.80777 0.572279 2.72595 0.628283 2.65762 0.698713C2.58929 0.769143 2.53586 0.852561 2.5005 0.944005C2.46514 1.03545 2.44857 1.13305 2.45179 1.23101V2.44858H2.20909C1.756 2.4492 1.32165 2.62903 1.00127 2.94862C0.680888 3.26822 0.500623 3.70151 0.5 4.15349V6.10206C0.5 6.29594 0.577206 6.48188 0.714634 6.61897C0.852061 6.75606 1.03845 6.83308 1.2328 6.83308H20.7672C20.9615 6.83308 21.1479 6.75606 21.2854 6.61897C21.4228 6.48188 21.5 6.29594 21.5 6.10206V4.15349Z"
                fill="#2B3C4C" />
        </g>
    </g>
    <defs>
        <clipPath id="clip0_105_6422">
            <rect width="21" height="19" fill="white" transform="translate(0.5 0.5)" />
        </clipPath>
    </defs>
</svg>
