<svg width="8" height="9" viewBox="0 0 8 9" fill="none" xmlns="http://www.w3.org/2000/svg">
    <path d="M4.79603 4.49996L7.55913 1.73684C7.81362 1.48235 7.81362 1.07008 7.55913 0.815748C7.30496 0.561417 6.89221 0.561417 6.63821 0.815748L3.87494 3.57887L1.11184 0.815748C0.857344 0.561417 0.445076 0.561417 0.190747 0.815748C-0.0635823 1.07024 -0.0635823 1.48251 0.190747 1.73684L2.95385 4.49996L0.190747 7.26324C-0.0635823 7.51757 -0.0635823 7.93 0.190747 8.18417C0.317912 8.31134 0.484642 8.375 0.651373 8.375C0.818103 8.375 0.984671 8.31134 1.112 8.18417L3.87494 5.42105L6.63821 8.18417C6.76521 8.31134 6.9321 8.375 7.09867 8.375C7.26524 8.375 7.43213 8.31134 7.55913 8.18417C7.81362 7.92984 7.81362 7.51741 7.55913 7.26324L4.79603 4.49996Z" fill="white"/>
</svg>
