<svg width="26" height="26" viewBox="0 0 26 26" fill="none" xmlns="http://www.w3.org/2000/svg">
    <circle cx="12.9963" cy="12.8751" r="12.2461" transform="rotate(-90 12.9963 12.8751)"
        fill="#F5F5F5" stroke="#E3E3E3"/>
    <path
        d="M17.8471 13.6219L17.8469 13.6217L13.4434 9.63346C13.4434 9.63342 13.4433 9.63336 13.4433 9.63332C13.1881 9.40173 12.7917 9.40179 12.5366 9.63346L12.5365 9.6336L8.14537 13.6331C8.01797 13.7488 7.94778 13.9004 7.94778 14.0587C7.94778 14.2171 8.01797 14.3686 8.14537 14.4843C8.40048 14.716 8.79703 14.716 9.05214 14.4843L12.9962 10.9021L16.9403 14.4843C17.1954 14.716 17.592 14.716 17.8471 14.4843C18.1105 14.2451 18.1105 13.8612 17.8471 13.6219Z"
        fill="#868889" stroke="#868889" stroke-width="0.3" />
</svg>
