<svg width="26" height="26" viewBox="0 0 26 26" fill="none" xmlns="http://www.w3.org/2000/svg">
    <circle cx="12.9963" cy="12.8394" r="12.2461" transform="rotate(90 12.9963 12.8394)"
        fill="#F5F5F5" stroke="#E3E3E3"/>
    <path
        d="M8.14561 12.0927L8.14577 12.0928L12.5493 16.0811C12.5493 16.0811 12.5494 16.0812 12.5494 16.0812C12.8045 16.3128 13.201 16.3128 13.456 16.0811L13.4562 16.081L17.8473 12.0815C17.9747 11.9658 18.0449 11.8142 18.0449 11.6558C18.0449 11.4975 17.9747 11.3459 17.8473 11.2302C17.5922 10.9985 17.1956 10.9985 16.9405 11.2302L12.9965 14.8125L9.05239 11.2302C8.79727 10.9985 8.40073 10.9985 8.14561 11.2302C7.88216 11.4695 7.88216 11.8534 8.14561 12.0927Z"
        fill="#868889" stroke="#868889" stroke-width="0.3" />
</svg>
