<svg width="22" height="22" viewBox="0 0 22 22" fill="none" xmlns="http://www.w3.org/2000/svg">
    <circle cx="11" cy="11" r="10.5" fill="#F5F5F5" stroke="#57536C" />
    <path
        d="M10.3406 15.3674L10.3407 15.3673L13.9232 11.4119L13.8121 11.311L13.9233 11.4117L13.9233 11.4117C14.1366 11.1768 14.1365 10.8118 13.9232 10.5768L13.923 10.5767L10.3305 6.63238C10.3305 6.63236 10.3305 6.63233 10.3304 6.6323C10.2239 6.51503 10.0838 6.4499 9.9369 6.4499C9.78997 6.4499 9.64985 6.51506 9.54329 6.63238C9.32987 6.86736 9.32987 7.23244 9.54329 7.46742L12.7517 10.9999L9.54329 14.5324C9.32987 14.7674 9.32987 15.1324 9.54329 15.3674C9.76428 15.6107 10.1196 15.6107 10.3406 15.3674Z"
        fill="#57536C" stroke="#57536C" stroke-width="0.3" />
</svg>
