<svg width="20" height="20" viewBox="0 0 20 20" fill="none" xmlns="http://www.w3.org/2000/svg">
    <path
        d="M3.73718 18.713L18.0544 4.3958C18.7438 3.70636 18.7615 2.57501 18.0933 1.90682C17.4252 1.23863 16.2938 1.25633 15.6044 1.94577L1.26417 16.286C0.574736 16.9754 0.557035 18.1067 1.22522 18.7749C1.9164 19.4201 3.02477 19.4254 3.73718 18.713Z"
        fill="white" />
    <path
        d="M18.4132 16.2379L4.09599 1.9207C3.40656 1.23127 2.27521 1.21356 1.60702 1.88175C0.938826 2.54994 0.956528 3.6813 1.64596 4.37073L15.9862 18.7109C16.6756 19.4004 17.8069 19.4181 18.4751 18.7499C19.1203 18.0587 19.1256 16.9503 18.4132 16.2379Z"
        fill="white" />
</svg>
