<svg width="19" height="19" viewBox="0 0 19 19" fill="none" xmlns="http://www.w3.org/2000/svg">
    <path d="M17.0375 15.3205L3.50947 1.79243C2.85804 1.141 1.78905 1.12428 1.1577 1.75563C0.526338 2.38699 0.543064 3.45598 1.19449 4.10741L14.7442 17.6571C15.3957 18.3086 16.4646 18.3253 17.096 17.6939C17.7056 17.0409 17.7106 15.9936 17.0375 15.3205Z" fill="#14112F"/>
    <path d="M14.7223 1.94115L1.19429 15.4692C0.542858 16.1206 0.526132 17.1896 1.15749 17.8209C1.78885 18.4523 2.85784 18.4356 3.50927 17.7841L17.059 4.23441C17.7104 3.58298 17.7272 2.51399 17.0958 1.88264C16.4427 1.27299 15.3954 1.268 14.7223 1.94115Z" fill="#14112F"/>
</svg>
