<svg width="32" height="32" viewBox="0 0 32 32" fill="none" xmlns="http://www.w3.org/2000/svg">
    <path
        d="M26.9601 26.9602C24.0533 29.867 20.1108 31.5 16 31.5C11.8891 31.5 7.94665 29.867 5.03984 26.9602C2.13303 24.0533 0.5 20.1109 0.5 16C0.5 11.8891 2.13303 7.94666 5.03984 5.03985C7.94665 2.13303 11.8891 0.5 16 0.5C20.1108 0.5 24.0533 2.13303 26.9601 5.03985C29.8669 7.94666 31.5 11.8891 31.5 16C31.5 20.1109 29.8669 24.0533 26.9601 26.9602Z"
        fill="#CDCDCD" stroke="#CDCDCD" />
    <path
        d="M11.5482 16.8889L21.3563 16.8889C21.8286 16.8889 22.2222 16.2829 22.2222 15.5556C22.2222 14.8283 21.8286 14.2223 21.3563 14.2223L11.5325 14.2222C11.0602 14.2222 10.6666 14.8283 10.6666 15.5556C10.6824 16.2829 11.0602 16.8889 11.5482 16.8889Z"
        fill="#14112F" />
</svg>
