<svg width="15" height="17" viewBox="0 0 15 17" fill="none" xmlns="http://www.w3.org/2000/svg">
    <path
        d="M5.41646 0.790527C5.04876 0.793307 4.6969 0.940614 4.43688 1.20063C4.17686 1.46065 4.02956 1.8125 4.02678 2.18021V2.99195H0.572188C0.498102 2.9891 0.424202 3.00122 0.354914 3.0276C0.285627 3.05399 0.222376 3.09408 0.168951 3.14549C0.115525 3.19689 0.0730248 3.25855 0.0439941 3.32677C0.0149635 3.39499 0 3.46837 0 3.54251C0 3.61665 0.0149635 3.69003 0.0439941 3.75825C0.0730248 3.82647 0.115525 3.88813 0.168951 3.93954C0.222376 3.99094 0.285627 4.03104 0.354914 4.05742C0.424202 4.0838 0.498102 4.09593 0.572188 4.09307H1.07656C1.43543 7.59426 1.76241 11.1012 2.10084 14.6097C2.12945 15.0331 2.31387 15.4309 2.6185 15.7263C2.92314 16.0218 3.3264 16.1939 3.75048 16.2095H10.3588C10.7824 16.1937 11.1851 16.0219 11.4895 15.727C11.7939 15.4321 11.9785 15.035 12.0077 14.6122C12.3616 11.1012 12.6829 7.59262 13.0589 4.09389H13.6589C13.733 4.09674 13.8069 4.08462 13.8762 4.05824C13.9455 4.03185 14.0087 3.99176 14.0622 3.94035C14.1156 3.88895 14.1581 3.82729 14.1871 3.75907C14.2162 3.69085 14.2311 3.61747 14.2311 3.54333C14.2311 3.46919 14.2162 3.39581 14.1871 3.32759C14.1581 3.25937 14.1156 3.19771 14.0622 3.1463C14.0087 3.0949 13.9455 3.0548 13.8762 3.02842C13.8069 3.00204 13.733 2.98991 13.6589 2.99277H10.0842V2.18021C10.0814 1.8125 9.93408 1.46065 9.67407 1.20063C9.41405 0.940614 9.06219 0.793307 8.69448 0.790527H5.41646ZM5.41646 1.89165H8.69285C8.73131 1.8899 8.76972 1.8962 8.80562 1.91012C8.84152 1.92405 8.87412 1.9453 8.90135 1.97253C8.92857 1.99976 8.94983 2.03236 8.96376 2.06826C8.97768 2.10416 8.98397 2.14256 8.98223 2.18103V2.99277H5.12708V2.18021C5.12546 2.14181 5.13183 2.1035 5.14581 2.0677C5.15979 2.03189 5.18106 1.99939 5.20828 1.97225C5.23549 1.94512 5.26805 1.92394 5.30389 1.91006C5.33973 1.89618 5.37807 1.88991 5.41646 1.89165ZM2.18259 4.09471H11.9529C11.5662 7.71115 11.2172 11.4519 10.9155 14.501C10.8779 14.8803 10.6703 15.1092 10.3588 15.1092H3.75048C3.43739 15.1092 3.23384 14.8836 3.19787 14.5059C2.86353 11.0374 2.54145 7.56565 2.18259 4.09471Z"
        fill="#fff" />
    <path
        d="M5.46405 6.84863C5.3917 6.84863 5.32005 6.86288 5.25321 6.89057C5.18636 6.91826 5.12562 6.95884 5.07446 7.01C5.0233 7.06116 4.98271 7.12191 4.95503 7.18876C4.92734 7.25561 4.91309 7.32724 4.91309 7.3996V11.8057C4.91309 11.9518 4.97113 12.092 5.07446 12.1953C5.17779 12.2986 5.31793 12.3567 5.46405 12.3567C5.61018 12.3567 5.75032 12.2986 5.85365 12.1953C5.95698 12.092 6.01502 11.9518 6.01502 11.8057V7.3996C6.01502 7.32724 6.00077 7.25561 5.97308 7.18876C5.94539 7.12191 5.90481 7.06116 5.85365 7.01C5.80249 6.95884 5.74175 6.91826 5.6749 6.89057C5.60805 6.86288 5.53641 6.84863 5.46405 6.84863Z"
        fill="#fff" />
    <path
        d="M8.76874 6.84863C8.69639 6.84863 8.62474 6.86288 8.5579 6.89057C8.49105 6.91826 8.43031 6.95884 8.37915 7.01C8.32799 7.06116 8.2874 7.12191 8.25971 7.18876C8.23203 7.25561 8.21777 7.32724 8.21777 7.3996V11.8057C8.21777 11.9518 8.27582 12.092 8.37915 12.1953C8.48248 12.2986 8.62262 12.3567 8.76874 12.3567C8.91487 12.3567 9.05501 12.2986 9.15834 12.1953C9.26166 12.092 9.31971 11.9518 9.31971 11.8057V7.3996C9.31971 7.32724 9.30546 7.25561 9.27777 7.18876C9.25008 7.12191 9.2095 7.06116 9.15834 7.01C9.10717 6.95884 9.04644 6.91826 8.97959 6.89057C8.91274 6.86288 8.8411 6.84863 8.76874 6.84863Z"
        fill="#fff" />
</svg>
