<svg width="14" height="14" viewBox="0 0 14 14" fill="none" xmlns="http://www.w3.org/2000/svg">
    <path d="M11.8545 0H2.14552C0.962859 0 0 0.96331 0 2.14652V11.8535C0 13.0367 0.962859 14 2.14552 14H6.02484C6.40539 14 6.71705 13.6898 6.71705 13.3075C6.71705 12.9251 6.40703 12.6149 6.02484 12.6149H2.14552C1.72396 12.6149 1.38114 12.2719 1.38114 11.8502V2.14652C1.38114 1.72477 1.72396 1.38178 2.14552 1.38178H4.36649V4.57531C4.36649 4.8543 4.5338 5.10374 4.79297 5.21205C5.05214 5.322 5.34739 5.26456 5.54751 5.06435L6.02812 4.58024L6.51037 5.06599C6.78102 5.33185 7.21898 5.33185 7.48635 5.06599L7.96696 4.58188L8.44921 5.06599C8.57715 5.194 8.75103 5.26621 8.92326 5.26621C9.0266 5.26621 9.12502 5.24815 9.20047 5.21205C9.46128 5.10702 9.63023 4.85758 9.63023 4.57367V1.38014H11.8512C12.2728 1.38014 12.6156 1.72313 12.6156 2.14488V6.02602C12.6156 6.40675 12.9256 6.71856 13.3078 6.71856C13.69 6.71856 14 6.40839 14 6.02602V2.14652C14 0.96331 13.0371 0 11.8545 0ZM8.24909 2.9687C7.99485 2.85547 7.68647 2.90306 7.47815 3.10983L6.99754 3.59395L6.51529 3.10819C6.38079 2.97527 6.20363 2.90962 6.02812 2.90962C5.93298 2.90962 5.83784 2.92932 5.74927 2.96706V1.3785H8.24909V2.9687Z" fill="white"/>
    <path d="M9.90744 5.82253C7.6553 5.82253 5.82308 7.65561 5.82308 9.9088C5.82308 12.162 7.6553 13.9951 9.90744 13.9951C12.1596 13.9951 13.9918 12.162 13.9918 9.9088C13.9918 7.65561 12.1596 5.82253 9.90744 5.82253ZM12.6123 9.9088C12.6123 11.4005 11.3985 12.6149 9.90744 12.6149C8.4164 12.6149 7.20258 11.4005 7.20258 9.9088C7.20258 8.41707 8.4164 7.20267 9.90744 7.20267C11.3985 7.20267 12.6123 8.41707 12.6123 9.9088Z" fill="white"/>
    <path d="M10.8342 8.614L9.60562 9.87598L9.27428 9.53628C9.03808 9.2934 8.63785 9.29176 8.3754 9.53628C8.13919 9.77916 8.13591 10.1747 8.3754 10.4438L9.13978 11.2282C9.25952 11.3513 9.42355 11.4202 9.58922 11.4202C9.75489 11.4202 9.91892 11.3497 10.0387 11.2282L11.7101 9.51166C11.9463 9.26878 11.9496 8.87329 11.7101 8.60415C11.4871 8.3744 11.0852 8.37932 10.8342 8.614Z" fill="white"/>
</svg>
