<svg width="46" height="50" viewBox="0 0 46 50" fill="none" xmlns="http://www.w3.org/2000/svg">
    <path d="M19.4351 0.0490246C23.7218 -0.219827 28.0055 0.620266 31.8731 2.48831C35.7407 4.35634 39.0618 7.18932 41.5162 10.7141C43.9705 14.2388 45.4754 18.3365 45.8857 22.612C46.296 26.8874 45.5978 31.1965 43.8585 35.1237C42.1192 39.0509 39.3975 42.4637 35.9557 45.0332C32.5139 47.6026 28.4682 49.242 24.2086 49.7932C19.949 50.3445 15.6192 49.789 11.6368 48.1804C7.65427 46.5717 4.15339 43.9642 1.47168 40.6091L4.99023 37.7967C7.18877 40.5473 10.0589 42.685 13.3238 44.0038C16.5887 45.3226 20.1384 45.778 23.6305 45.3261C27.1226 44.8741 30.4394 43.5301 33.261 41.4236C36.0827 39.3172 38.314 36.5192 39.7399 33.2996C41.1658 30.08 41.7382 26.5474 41.4019 23.0422C41.0655 19.5371 39.8318 16.1778 37.8196 13.2881C35.8075 10.3984 33.0847 8.07586 29.914 6.54439C26.7432 5.01293 23.2314 4.32421 19.7171 4.54462L19.4351 0.0490246Z" fill="url(#paint0_linear_0_1)"/>
    <circle cx="21" cy="25" r="21" fill="#F7F7F7"/>
    <path d="M29.8193 27.2409C29.1976 27.4609 28.2074 27.7028 27.102 27.9448C26.7106 28.5608 25.9967 29.0668 24.8684 29.2648C24.6151 29.3088 24.3157 29.3308 23.9933 29.3528C23.2104 29.3748 22.2893 29.2868 21.2761 29.2208C21.207 29.2208 21.1379 29.2208 21.0688 29.1988C20.8155 29.1768 20.6083 29.0008 20.5852 28.7588C20.5622 28.4508 20.8155 28.2088 21.1149 28.2528C21.184 28.2528 21.2761 28.2748 21.3452 28.2748C22.6577 28.3848 23.9012 28.4948 24.6841 28.3408C26.1349 28.0768 26.5494 27.2409 26.4573 26.5369C26.3882 25.9649 25.9276 25.4149 25.2138 25.4589C24.2006 25.5249 23.0031 25.4589 21.8287 25.3709C20.4931 25.2829 19.1345 25.2389 18.1443 25.3489C17.062 25.4589 14.8744 26.2289 12.9401 27.4829C11.996 28.0988 10.9367 28.8248 10.2919 29.2868C9.96953 29.5068 9.90044 29.9468 10.1537 30.2547L12.9631 33.7306C13.1934 34.0386 13.6539 34.0826 13.9763 33.8626L15.0126 33.0926C15.2659 32.9166 15.5883 32.8506 15.8646 32.9386C17.7528 33.5106 19.7793 33.8846 21.0918 33.9506C23.9703 34.0826 29.5199 30.8267 31.1088 29.7708C32.7208 28.7368 31.5694 26.6249 29.8193 27.2409Z" fill="#CDCDCD"/>
    <path d="M18.4437 20.707H23.5558V22.313C23.5558 22.8849 24.2236 23.2149 24.7302 22.8849L28.9443 20.069C29.3588 19.7831 29.3588 19.1891 28.9443 18.9031L24.7072 16.1312C24.2236 15.8012 23.5328 16.1312 23.5328 16.7032V18.3091H18.4437C18.1443 18.3091 17.9141 18.5291 17.9141 18.8151V20.179C17.891 20.487 18.1443 20.707 18.4437 20.707Z" fill="#CDCDCD"/>
    <defs>
        <linearGradient id="paint0_linear_0_1" x1="21" y1="0" x2="21" y2="50" gradientUnits="userSpaceOnUse">
            <stop stop-color="#15A608"/>
            <stop offset="0.5" stop-color="#EBFF04"/>
            <stop offset="1" stop-color="#FE9901"/>
        </linearGradient>
    </defs>
</svg>
