<svg width="15" height="16" viewBox="0 0 15 16" fill="none" xmlns="http://www.w3.org/2000/svg">
    <path d="M12.3545 1H2.64552C1.46286 1 0.5 1.96331 0.5 3.14652V12.8535C0.5 14.0367 1.46286 15 2.64552 15H6.52484C6.90539 15 7.21705 14.6898 7.21705 14.3075C7.21705 13.9251 6.90703 13.6149 6.52484 13.6149H2.64552C2.22396 13.6149 1.88114 13.2719 1.88114 12.8502V3.14652C1.88114 2.72477 2.22396 2.38178 2.64552 2.38178H4.86649V5.57531C4.86649 5.8543 5.0338 6.10374 5.29297 6.21205C5.55214 6.322 5.84739 6.26456 6.04751 6.06435L6.52812 5.58024L7.01037 6.06599C7.28102 6.33185 7.71898 6.33185 7.98635 6.06599L8.46696 5.58188L8.94921 6.06599C9.07715 6.194 9.25103 6.26621 9.42326 6.26621C9.5266 6.26621 9.62501 6.24815 9.70047 6.21205C9.96128 6.10702 10.1302 5.85758 10.1302 5.57367V2.38014H12.3512C12.7728 2.38014 13.1156 2.72313 13.1156 3.14488V7.02602C13.1156 7.40675 13.4256 7.71856 13.8078 7.71856C14.19 7.71856 14.5 7.40839 14.5 7.02602V3.14652C14.5 1.96331 13.5371 1 12.3545 1ZM8.74909 3.97034C8.49484 3.85711 8.18647 3.9047 7.97815 4.11148L7.49754 4.59559L7.01529 4.10984C6.88079 3.97691 6.70363 3.91126 6.52812 3.91126C6.43298 3.91126 6.33784 3.93096 6.24927 3.9687V2.38014H8.74909V3.97034Z" fill="white"/>
    <path d="M9.44622 11.2813L9.28383 11.5537C9.19526 11.7031 9.16901 11.8869 9.2133 12.0559C9.25759 12.2249 9.36913 12.3726 9.51511 12.458C9.62009 12.522 9.73656 12.5532 9.8563 12.5532C9.90879 12.5532 9.96292 12.5466 10.0154 12.5335C10.1844 12.4924 10.332 12.3825 10.4206 12.2331L11.0636 11.1697L11.08 11.1205C11.0882 11.0992 11.0947 11.0778 11.0996 11.0549L11.1111 11.0122C11.121 10.9712 11.1193 10.9367 11.1177 10.9104C11.1177 10.8973 11.1177 10.8875 11.1177 10.8825L11.1079 9.26937C11.1062 8.90833 10.8093 8.61458 10.4484 8.61458C10.2746 8.61458 10.1056 8.68679 9.98424 8.80987C9.86122 8.93459 9.79233 9.10034 9.79397 9.27758L9.80217 10.7053L9.45114 11.283L9.44786 11.2797L9.44622 11.2813Z" fill="white"/>
    <path d="M10.4665 6.85371C9.65126 6.85863 8.85079 7.10151 8.18155 7.56265L8.10609 7.48716C7.96175 7.34439 7.75015 7.30336 7.56151 7.3805C7.37452 7.45763 7.25313 7.63978 7.25313 7.84164V9.02321C7.25313 9.29727 7.47786 9.52046 7.75179 9.5221H8.93117C9.13292 9.5221 9.315 9.40066 9.39045 9.21357C9.46919 9.02649 9.42654 8.81315 9.28219 8.66874L9.13128 8.51776C9.53316 8.28965 9.98424 8.17149 10.4517 8.17149C10.455 8.17149 10.4566 8.17149 10.4616 8.17149C11.1866 8.17149 11.8673 8.45376 12.3807 8.96577C12.8941 9.47779 13.1763 10.1605 13.1763 10.8858C13.1763 11.6112 12.8941 12.2939 12.3824 12.8075C11.8706 13.3212 11.1882 13.6034 10.4632 13.6051C9.7382 13.6051 9.05747 13.3228 8.54405 12.8108C8.03064 12.2988 7.74851 11.6161 7.74851 10.8908C7.74851 10.5264 7.45325 10.231 7.0891 10.231C6.72496 10.231 6.4297 10.5264 6.4297 10.8908C6.4297 11.9689 6.84962 12.9815 7.61072 13.7446C8.37182 14.506 9.38553 14.9262 10.4632 14.9262C11.5409 14.9262 12.553 14.506 13.3157 13.7446C14.0784 12.9831 14.4967 11.9689 14.4967 10.8908C14.4967 9.81257 14.0768 8.80002 13.3157 8.03692C12.5546 7.27547 11.5409 6.85535 10.4649 6.85535L10.4665 6.85371Z" fill="white"/>
</svg>
