<svg width="18" height="20" viewBox="0 0 18 20" fill="none" xmlns="http://www.w3.org/2000/svg">
    <path fill-rule="evenodd" clip-rule="evenodd" d="M12.8485 1.86437H2.77775C2.5222 1.86437 2.33213 1.95687 2.16239 2.10677L2.16334 2.10767C2.00566 2.2578 1.90779 2.46509 1.90779 2.69265V17.3074C1.90779 17.7628 2.29927 18.1357 2.77775 18.1357H15.222C15.6981 18.1357 16.092 17.7673 16.092 17.3074V4.95241H13.3024C13.0518 4.95241 12.8485 4.75884 12.8485 4.52026V1.86437ZM12.988 13.4406C13.5856 13.4406 13.5856 14.3049 12.988 14.3049H5.01153C4.4139 14.3049 4.4139 13.4406 5.01153 13.4406H12.988ZM12.988 10.2265C13.5856 10.2265 13.5856 11.0908 12.988 11.0908H5.01153C4.4139 11.0908 4.4139 10.2265 5.01153 10.2265H12.988ZM12.988 7.01245C13.5856 7.01245 13.5856 7.87674 12.988 7.87674H5.01153C4.4139 7.87674 4.4139 7.01245 5.01153 7.01245H12.988ZM15.4501 4.08812H13.7563V2.47545L15.4501 4.08812ZM13.5294 1.05792L16.9452 4.31432L17 4.52026V17.3074C17 18.2381 16.2017 19 15.2222 19H2.77775C1.7981 19 1 18.2401 1 17.3074V2.69265C1 2.22629 1.19952 1.80314 1.52151 1.49659L1.52245 1.49749C1.84514 1.19049 2.28958 1.00007 2.77775 1.00007H13.3024L13.5294 1.05792Z" fill="white" stroke="white" stroke-width="0.4"/>
</svg>
