<svg width="28" height="28" viewBox="0 0 28 28" fill="none" xmlns="http://www.w3.org/2000/svg">
    <rect width="28" height="28" rx="3" fill="#D0D1DF"/>
    <path d="M20.3424 7.6455C19.4432 6.75268 17.9816 6.79967 17.0806 7.70189L15.8616 8.91801C15.8071 8.97252 15.8071 9.06086 15.8616 9.11537L18.8902 12.1359C18.9447 12.1904 19.0331 12.1904 19.0877 12.1359L20.3029 10.9198C21.2133 10.0063 21.2377 8.53644 20.3424 7.64738V7.6455Z" fill="#57536C"/>
    <path d="M15.0697 9.89917C15.0152 9.84466 14.9268 9.84466 14.8722 9.89917L8.90168 15.8595C8.31103 16.4478 7.92729 17.1 7.69404 17.9045L7.02437 20.2277C6.8927 20.6844 7.31594 21.1111 7.77868 20.9739L10.0868 20.3066C10.8975 20.0717 11.5408 19.6845 12.139 19.0868L18.102 13.1208C18.1565 13.0663 18.1565 12.978 18.102 12.9235L15.0716 9.89917H15.0697Z" fill="#57536C"/>
</svg>
