<svg width="2" height="8" viewBox="0 0 2 8" fill="none" xmlns="http://www.w3.org/2000/svg">
    <path d="M1.8457 0.601562L1.71826 5.07959H0.738281L0.61084 0.601562H1.8457ZM0.575684 6.45947C0.575684 6.28662 0.634277 6.1416 0.751465 6.02441C0.871582 5.9043 1.03271 5.84424 1.23486 5.84424C1.43701 5.84424 1.59668 5.9043 1.71387 6.02441C1.83398 6.1416 1.89404 6.28662 1.89404 6.45947C1.89404 6.62939 1.83398 6.77295 1.71387 6.89014C1.59668 7.00732 1.43701 7.06592 1.23486 7.06592C1.03271 7.06592 0.871582 7.00732 0.751465 6.89014C0.634277 6.77295 0.575684 6.62939 0.575684 6.45947Z" fill="white"/>
</svg>
