<svg width="35" height="34" viewBox="0 0 35 34" fill="none" xmlns="http://www.w3.org/2000/svg">
    <circle cx="17.3684" cy="17" r="17" fill="white"/>
    <path d="M23.8856 11.473C23.7186 11.1752 23.3847 11 23.0322 11H11.9763C11.6238 11 11.2899 11.1752 11.123 11.473C10.956 11.7709 10.956 12.1213 11.1415 12.4016C11.1601 12.4191 11.1601 12.4367 11.1786 12.4542L15.6121 17.973V21.9501C15.6121 22.1954 15.742 22.4232 15.9646 22.5458L18.2463 23.8949C18.3576 23.965 18.506 24 18.6358 24C18.7657 24 18.877 23.965 18.9883 23.9124C19.2294 23.7898 19.3778 23.562 19.3778 23.2992V17.973L23.8114 12.4542C23.8299 12.4367 23.8299 12.4191 23.8485 12.4016C24.034 12.1213 24.0525 11.7709 23.8856 11.473Z" fill="#3B7FD4"/>
</svg>
