<svg width="32" height="32" viewBox="0 0 32 32" fill="none" xmlns="http://www.w3.org/2000/svg">
    <rect width="32" height="32" rx="4" fill="#57536C"/>
    <path d="M21.8944 10.4367C21.7403 10.1617 21.432 10 21.1067 10H10.9012C10.5759 10 10.2676 10.1617 10.1135 10.4367C9.95942 10.7116 9.95942 11.035 10.1306 11.2938C10.1478 11.31 10.1478 11.3261 10.1649 11.3423L14.2574 16.4367V20.1078C14.2574 20.3342 14.3772 20.5445 14.5827 20.6577L16.6889 21.903C16.7916 21.9677 16.9286 22 17.0485 22C17.1683 22 17.2711 21.9677 17.3738 21.9191C17.5964 21.8059 17.7334 21.5957 17.7334 21.3531V16.4367L21.8259 11.3423C21.843 11.3261 21.843 11.31 21.8601 11.2938C22.0313 11.035 22.0485 10.7116 21.8944 10.4367Z" fill="#F0ECF9"/>
</svg>
