<svg width="32" height="32" viewBox="0 0 32 32" fill="none" xmlns="http://www.w3.org/2000/svg">
    <path
        d="M16 32C20.2435 32 24.3131 30.3143 27.3137 27.3137C30.3143 24.3131 32 20.2435 32 16C32 11.7565 30.3143 7.68687 27.3137 4.68629C24.3131 1.68571 20.2435 0 16 0C11.7565 0 7.68687 1.68571 4.68629 4.68629C1.68571 7.68687 0 11.7565 0 16C0 20.2435 1.68571 24.3131 4.68629 27.3137C7.68687 30.3143 11.7565 32 16 32Z"
        fill="#CDCDCD" />
    <path
        d="M11.5482 16.8889L21.3563 16.8889C21.8286 16.8889 22.2222 16.2828 22.2222 15.5555C22.2222 14.8282 21.8286 14.2222 21.3563 14.2222L11.5325 14.2222C11.0602 14.2222 10.6666 14.8282 10.6666 15.5555C10.6824 16.2828 11.0602 16.8889 11.5482 16.8889Z"
        fill="#14112F" />
    <path
        d="M15.1111 10.6594L15.1111 20.4674C15.1111 20.9397 15.7171 21.3333 16.4444 21.3333C17.1717 21.3333 17.7778 20.9397 17.7778 20.4674L17.7778 10.6436C17.7778 10.1713 17.1717 9.77776 16.4444 9.77776C15.7171 9.7935 15.1111 10.1713 15.1111 10.6594Z"
        fill="#14112F" />
</svg>
