<svg width="17" height="18" viewBox="0 0 17 18" fill="none" xmlns="http://www.w3.org/2000/svg">
    <rect y="0.5" width="17" height="17" rx="8.5" fill="#57536C"/>
    <path d="M9.49121 6.76123V14.1577H7.51562V6.76123H9.49121ZM7.39258 4.8335C7.39258 4.54639 7.49284 4.30941 7.69336 4.12256C7.89388 3.93571 8.16276 3.84229 8.5 3.84229C8.83268 3.84229 9.09928 3.93571 9.2998 4.12256C9.50488 4.30941 9.60742 4.54639 9.60742 4.8335C9.60742 5.12061 9.50488 5.35758 9.2998 5.54443C9.09928 5.73128 8.83268 5.82471 8.5 5.82471C8.16276 5.82471 7.89388 5.73128 7.69336 5.54443C7.49284 5.35758 7.39258 5.12061 7.39258 4.8335Z" fill="white"/>
</svg>
