<svg width="14" height="20" viewBox="0 0 14 20" fill="none" xmlns="http://www.w3.org/2000/svg">
    <path
        d="M3.41433 11.8615L11.9974 3.84011C12.4107 3.45384 12.1593 2.57513 11.4443 1.90694C10.7294 1.23875 9.78913 1.00381 9.37582 1.39008L0.778981 9.42437C0.365671 9.81063 0.61706 10.6893 1.33204 11.3575C2.06079 12.0128 2.98725 12.2607 3.41433 11.8615Z"
        fill="#57536C" />
    <path
        d="M12.3597 16.7731L3.41155 8.41051C2.98066 8.00782 2.02577 8.22907 1.31079 8.89726C0.595818 9.56545 0.35908 10.4579 0.78997 10.8605L9.75249 19.2366C10.1834 19.6393 11.1383 19.418 11.8532 18.7498C12.5539 18.0682 12.805 17.1892 12.3597 16.7731Z"
        fill="#57536C" />
</svg>
