<svg width="16" height="14" viewBox="0 0 16 14" fill="none" xmlns="http://www.w3.org/2000/svg">
    <path d="M10.1067 9.75582V11.4093C10.1067 12.5392 9.17798 13.4762 8.05805 13.4762H2.04866C0.928724 13.4762 0 12.5392 0 11.4093V2.59067C0 1.46078 0.928724 0.523804 2.04866 0.523804H8.05805C9.17798 0.523804 10.1067 1.46078 10.1067 2.59067V4.24417C10.1067 4.62998 9.80623 4.93312 9.42382 4.93312C9.0414 4.93312 8.74093 4.62998 8.74093 4.24417V2.59067C8.74093 2.20486 8.44046 1.90172 8.05805 1.90172H2.04866C1.66624 1.90172 1.36577 2.20486 1.36577 2.59067V11.4093C1.36577 11.7951 1.66624 12.0983 2.04866 12.0983H8.05805C8.44046 12.0983 8.74093 11.7951 8.74093 11.4093V9.75582C8.74093 9.37 9.0414 9.06686 9.42382 9.06686C9.80623 9.06686 10.1067 9.37 10.1067 9.75582ZM15.8703 7.38581C15.8703 7.35825 15.8976 7.35825 15.8976 7.33069C15.8976 7.30313 15.9249 7.27558 15.9249 7.27558C15.9249 7.24802 15.9522 7.22046 15.9522 7.22046C15.9522 7.1929 15.9522 7.1929 15.9795 7.16534C16.0068 7.08267 16.0068 6.97244 15.9795 6.88976C15.9795 6.8622 15.9795 6.8622 15.9522 6.83464C15.9522 6.80709 15.9522 6.77953 15.9249 6.77953C15.9249 6.75197 15.8976 6.72441 15.8976 6.72441C15.8976 6.69685 15.8703 6.69685 15.8703 6.66929C15.8429 6.64174 15.8156 6.58662 15.7883 6.55906L12.729 3.44498C12.4558 3.1694 12.0188 3.1694 11.7729 3.44498C11.4998 3.72056 11.4998 4.16149 11.7729 4.40952L13.6577 6.31104H5.05335C4.67093 6.31104 4.37047 6.61418 4.37047 6.99999C4.37047 7.38581 4.67093 7.68895 5.05335 7.68895H13.6304L11.7456 9.59047C11.4725 9.86605 11.4725 10.307 11.7456 10.555C11.8822 10.6928 12.0461 10.7479 12.2373 10.7479C12.4285 10.7479 12.5924 10.6928 12.729 10.555L15.7883 7.46848C15.8156 7.46848 15.8429 7.41337 15.8703 7.38581Z" fill="#DBF1FF"/>
</svg>
