<svg width="19" height="20" viewBox="0 0 19 20" fill="none" xmlns="http://www.w3.org/2000/svg">
    <path d="M12.7504 8.66602H1.39418C0.633717 8.66602 0 9.27237 0 9.99999C0 10.7276 0.633717 11.334 1.39418 11.334H12.7757C13.5362 11.334 14.1699 10.7276 14.1699 9.99999C14.1446 9.24811 13.5362 8.66602 12.7504 8.66602Z" fill="#14112F"/>
    <path d="M16.967 0.662231H1.37638C0.625627 0.662231 0 1.26858 0 1.9962C0 2.72382 0.625627 3.33017 1.37638 3.33017H16.992C17.7428 3.33017 18.3684 2.72382 18.3684 1.9962C18.3434 1.26858 17.7428 0.662231 16.967 0.662231Z" fill="#14112F"/>
    <path d="M16.967 16.6699H1.37638C0.625627 16.6699 0 17.2763 0 18.0039C0 18.7315 0.625627 19.3379 1.37638 19.3379H16.992C17.7428 19.3379 18.3684 18.7315 18.3684 18.0039C18.3434 17.2763 17.7428 16.6699 16.967 16.6699Z" fill="#14112F"/>
</svg>
