<svg width="12" height="13" viewBox="0 0 12 13" fill="none" xmlns="http://www.w3.org/2000/svg">
    <path d="M9.2627 8.23486L8.95784 8.55714L9.2627 8.87943C9.45276 9.08034 9.45276 9.40606 9.2627 9.60697C9.168 9.70709 9.04346 9.75783 8.91892 9.75783C8.79438 9.75783 8.66984 9.70777 8.57513 9.60697L8.27027 9.28469L7.9654 9.60697C7.8707 9.70709 7.74616 9.75783 7.62162 9.75783C7.49708 9.75783 7.37254 9.70777 7.27784 9.60697C7.08778 9.40606 7.08778 9.08034 7.27784 8.87943L7.5827 8.55714L7.27784 8.23486C7.08778 8.03394 7.08778 7.70823 7.27784 7.50731C7.46789 7.3064 7.776 7.3064 7.96605 7.50731L8.27092 7.8296L8.57578 7.50731C8.76584 7.3064 9.07395 7.3064 9.264 7.50731C9.45405 7.70823 9.45405 8.03394 9.264 8.23486H9.2627ZM12 8.55714C12 10.7309 10.3265 12.5 8.27027 12.5H1.78378C0.799784 12.5 0 11.6545 0 10.6143V2.38571C0 1.34549 0.799784 0.5 1.78378 0.5H8.91892C9.90292 0.5 10.7027 1.34549 10.7027 2.38571V5.57497C11.4954 6.2984 12 7.36606 12 8.55714ZM4.21622 3.07143C4.21622 3.16606 4.28886 3.24286 4.37838 3.24286H6.32432C6.41384 3.24286 6.48649 3.16606 6.48649 3.07143V1.52857H4.21622V3.07143ZM5.76713 11.4714C5.016 10.7494 4.54054 9.71257 4.54054 8.55714C4.54054 6.38343 6.21405 4.61429 8.27027 4.61429C8.78789 4.61429 9.28086 4.72674 9.72973 4.92903V2.38571C9.72973 1.91326 9.36584 1.52857 8.91892 1.52857H7.45946V3.07143C7.45946 3.73314 6.95027 4.27143 6.32432 4.27143H4.37838C3.75243 4.27143 3.24324 3.73314 3.24324 3.07143V1.52857H1.78378C1.33686 1.52857 0.972973 1.91326 0.972973 2.38571V10.6143C0.972973 11.0867 1.33686 11.4714 1.78378 11.4714H5.76713ZM11.027 8.55714C11.027 6.95051 9.79005 5.64286 8.27027 5.64286C6.75049 5.64286 5.51351 6.95051 5.51351 8.55714C5.51351 10.1638 6.75049 11.4714 8.27027 11.4714C9.79005 11.4714 11.027 10.1638 11.027 8.55714Z" fill="white"/>
</svg>
