<svg width="20" height="16" viewBox="0 0 20 16" fill="none" xmlns="http://www.w3.org/2000/svg">
    <path fill-rule="evenodd" clip-rule="evenodd" d="M15.1304 0.807404H3.13246C1.41847 0.807404 0 2.22588 0 3.93986V10.7367C0 12.4507 1.41847 13.8692 3.13246 13.8692H15.1304C15.2486 13.8692 15.4259 13.8101 15.6032 13.8101L17.2581 14.4011L19.2676 15.1694C19.504 15.2285 19.6813 15.1694 19.8586 15.0512C19.9768 14.8739 20.0359 14.6966 19.9768 14.5193L19.2085 12.4507L18.2628 9.85016V3.93986C18.2628 2.22588 16.8444 0.807404 15.1304 0.807404ZM12.1752 6.30398C11.5842 6.30398 11.1114 6.77681 11.1114 7.30873C11.1114 7.89976 11.5842 8.37259 12.1752 8.37259C12.7071 8.37259 13.18 7.89976 13.18 7.30873C13.18 6.77681 12.7071 6.30398 12.1752 6.30398ZM9.10186 6.30398C8.56993 6.30398 8.09711 6.77681 8.09711 7.30873C8.09711 7.89976 8.56993 8.37259 9.10186 8.37259C9.69289 8.37259 10.1657 7.89976 10.1657 7.30873C10.1657 6.77681 9.69289 6.30398 9.10186 6.30398ZM6.08761 6.30398C5.49658 6.30398 5.02376 6.77681 5.02376 7.30873C5.02376 7.89976 5.49658 8.37259 6.08761 8.37259C6.67864 8.37259 7.09236 7.89976 7.09236 7.30873C7.09236 6.77681 6.67864 6.30398 6.08761 6.30398Z" fill="#D0D1DF"/>
</svg>
