<svg width="13" height="17" viewBox="0 0 13 17" fill="none" xmlns="http://www.w3.org/2000/svg">
    <path d="M12.8698 11.9971L11.8197 9.75469C11.7841 9.6835 11.7663 9.61232 11.7663 9.52333V8.5089C11.357 8.66907 10.9299 8.74026 10.4672 8.74026C10.4138 8.74026 10.3604 8.74026 10.307 8.72246V9.52333C10.307 9.77249 10.3604 10.0216 10.4672 10.3064L11.3926 12.2641H1.58643L2.54747 10.2352C2.61866 10.0039 2.65425 9.77249 2.65425 9.52333V7.19192C2.65425 5.59018 3.66869 4.14862 5.16364 3.61471C5.44839 3.50793 5.64416 3.24097 5.64416 2.93842V2.36891C5.64416 1.90619 6.0179 1.53245 6.48062 1.53245C6.92555 1.53245 7.31708 1.90619 7.31708 2.36891V2.93842C7.31708 3.02741 7.33488 3.11639 7.37047 3.20538C7.70862 2.65367 8.17134 2.20874 8.74085 1.90619C8.52728 0.838368 7.61963 0.0552979 6.49842 0.0552979C5.23483 0.0552979 4.2026 1.08753 4.2026 2.35112V2.4401C2.4051 3.31216 1.21269 5.16305 1.21269 7.19192V9.54113C1.21269 9.61232 1.1949 9.7013 1.21269 9.7013L0.127073 11.9971C-0.0686942 12.3709 -0.0330999 12.8158 0.198262 13.1717C0.429623 13.5277 0.821158 13.7412 1.23049 13.7412H3.24156C3.27715 15.5209 4.71871 16.9447 6.51622 16.9447C8.29592 16.9447 9.73748 15.5031 9.79087 13.7412H11.7841C12.2113 13.7412 12.6028 13.5277 12.8342 13.1717C13.0299 12.8158 13.0655 12.3887 12.8698 11.9971ZM6.49842 15.5031C5.51958 15.5031 4.71871 14.7201 4.68312 13.759H8.29592C8.27812 14.7201 7.47726 15.5031 6.49842 15.5031Z" fill="#DBF1FF"/>
    <path d="M10.485 7.42332C11.7628 7.42332 12.7986 6.38747 12.7986 5.1097C12.7986 3.83192 11.7628 2.79608 10.485 2.79608C9.20723 2.79608 8.17139 3.83192 8.17139 5.1097C8.17139 6.38747 9.20723 7.42332 10.485 7.42332Z" fill="#DBF1FF"/>
</svg>
