<svg width="15" height="14" viewBox="0 0 15 14" fill="none" xmlns="http://www.w3.org/2000/svg">
    <path d="M13.9861 5.42C13.9261 4.97 13.7061 4.55 13.3661 4.25C13.0261 3.95 12.5961 3.8 12.1361 3.79H10.6561L9.34605 0.46C9.26605 0.28 9.11605 0.13 8.92605 0.06C8.73605 -0.02 8.52605 -0.02 8.33605 0.06C8.14605 0.14 8.00605 0.28 7.91605 0.46C7.83605 0.64 7.82605 0.85 7.89605 1.06L8.96605 3.79H5.02605L6.10605 1.04C6.16605 0.85 6.15605 0.64 6.07605 0.46C5.99605 0.27 5.84605 0.13 5.65605 0.06C5.46605 -0.02 5.25605 -0.02 5.06605 0.06C4.87605 0.14 4.72605 0.28 4.63605 0.49L3.33605 3.79H1.85605C1.40605 3.79 0.966051 3.96 0.636051 4.26C0.296051 4.56 0.0760512 4.98 0.0160512 5.43C-0.0439488 5.88 0.0660512 6.34 0.316051 6.72C0.506051 7.01 0.776051 7.24 1.08605 7.38L2.04605 11.31C2.16605 11.79 2.43605 12.23 2.82605 12.54C3.21605 12.85 3.69605 13.02 4.19605 13.02H9.80605C10.2961 13.02 10.7861 12.85 11.1761 12.54C11.5661 12.23 11.8361 11.8 11.9561 11.32L12.9161 7.39C13.2261 7.25 13.5061 7.02 13.6961 6.73C13.9461 6.35 14.0561 5.89 13.9961 5.44L13.9861 5.42ZM10.6761 10.88C10.6261 11.08 10.5161 11.25 10.3561 11.38C10.1961 11.5 10.0061 11.57 9.80605 11.57H4.19605C3.99605 11.57 3.80605 11.5 3.64605 11.38C3.48605 11.26 3.37605 11.08 3.32605 10.88L2.42605 7.19H11.5661L10.6661 10.88H10.6761ZM12.5161 5.95C12.4161 6.05 12.2761 6.11 12.1361 6.11H1.86605C1.72605 6.11 1.58605 6.05 1.48605 5.95C1.38605 5.85 1.32605 5.71 1.32605 5.56C1.32605 5.41 1.38605 5.27 1.48605 5.17C1.58605 5.07 1.72605 5.01 1.86605 5.01H12.1361C12.2761 5.01 12.4161 5.07 12.5161 5.17C12.6161 5.27 12.6761 5.41 12.6761 5.56C12.6761 5.71 12.6161 5.85 12.5161 5.95Z" fill="white"/>
</svg>
