<svg width="42" height="42" viewBox="0 0 42 42" fill="none" xmlns="http://www.w3.org/2000/svg">
    <circle cx="21" cy="21" r="21" fill="#15A608"/>
    <path d="M13.6206 12.806C13.3943 12.5797 13.0322 12.5797 12.806 12.806C12.5797 13.0322 12.5797 13.3943 12.806 13.6206L16.2004 17.015C16.3135 17.1282 16.4493 17.1734 16.6077 17.1734C16.7661 17.1734 16.9019 17.1282 17.015 17.015C17.2413 16.7887 17.2413 16.4267 17.015 16.2004L13.6206 12.806Z" fill="white"/>
    <path d="M15.9289 19.5496C15.9289 19.2328 15.68 18.9839 15.3632 18.9839H10.5657C10.2489 18.9839 10 19.2328 10 19.5496C10 19.8664 10.2489 20.1154 10.5657 20.1154H15.3405C15.68 20.138 15.9289 19.8664 15.9289 19.5496Z" fill="white"/>
    <path d="M16.1779 22.1067L12.7835 25.5011C12.5572 25.7274 12.5572 26.0895 12.7835 26.3158C12.8966 26.4289 13.0324 26.4742 13.1908 26.4742C13.3492 26.4742 13.485 26.4289 13.5982 26.3158L16.9926 22.9214C17.2189 22.6951 17.2189 22.333 16.9926 22.1067C16.7663 21.8804 16.4042 21.8804 16.1779 22.1067Z" fill="white"/>
    <path d="M22.5141 17.1734C22.6725 17.1734 22.8082 17.1282 22.9214 17.015L26.3158 13.6206C26.5421 13.3943 26.5421 13.0322 26.3158 12.806C26.0895 12.5797 25.7274 12.5797 25.5011 12.806L22.1067 16.2004C21.8804 16.4267 21.8804 16.7887 22.1067 17.015C22.2199 17.1055 22.3783 17.1734 22.5141 17.1734Z" fill="white"/>
    <path d="M19.5496 15.9289C19.8664 15.9289 20.1154 15.68 20.1154 15.3632V10.5657C20.1154 10.2489 19.8664 10 19.5496 10C19.2328 10 18.9839 10.2489 18.9839 10.5657V15.3405C18.9839 15.68 19.2328 15.9289 19.5496 15.9289Z" fill="white"/>
    <path d="M31.0454 22.4915L19.7307 18.7124C19.4365 18.6219 19.1197 18.6898 18.916 18.916C18.7123 19.1197 18.6218 19.4365 18.7123 19.7307L22.4914 31.0454C22.6725 31.6111 23.4645 31.6564 23.7134 31.1133L26.0216 26.3159C26.0895 26.1801 26.2027 26.0669 26.3384 25.999L31.1359 23.6908C31.6564 23.4646 31.6111 22.6725 31.0454 22.4915Z" fill="white"/>
</svg>
