<svg width="14" height="14" viewBox="0 0 14 14" fill="none" xmlns="http://www.w3.org/2000/svg">
    <path d="M3.94499 3.43235L3.57117 3.52031C4.03908 3.05279 4.57461 2.68973 5.20375 2.4538L5.20377 2.45384L5.20679 2.45263C6.42932 1.96361 7.75068 2.01125 8.97852 2.55121C10.1573 3.09179 11.0877 4.02348 11.5775 5.24785C12.0666 6.47072 12.0188 7.79247 11.4784 9.02061C10.9393 10.246 10.01 11.1269 8.78396 11.6178C7.06515 12.2556 5.15612 11.9593 3.78705 10.7374C3.1937 10.1934 2.70422 9.55492 2.41157 8.82329C2.28381 8.50388 1.89913 8.30106 1.56003 8.4367C1.24083 8.56438 1.03808 8.94861 1.17315 9.28753C1.53535 10.2186 2.1554 11.0975 2.88154 11.72C4.02093 12.7039 5.47015 13.2209 6.96926 13.2209C7.7477 13.2209 8.47203 13.0651 9.19143 12.8081L9.19147 12.8082L9.19669 12.8061C10.7475 12.1858 11.9385 11.0471 12.6112 9.54642C13.2841 8.04539 13.336 6.33649 12.7146 4.78289C12.0971 3.23922 11.0626 1.99299 9.50451 1.31751C8.00369 0.644999 6.29514 0.593168 4.74184 1.21449C3.80083 1.59089 2.94348 2.18241 2.28829 2.95188L2.11581 2.33095C2.08278 2.14517 1.98591 1.99617 1.84243 1.90333C1.69853 1.81022 1.52039 1.78155 1.33855 1.81186L1.32256 1.81453L1.3075 1.82055C0.996541 1.94493 0.796143 2.26306 0.86259 2.5953L0.862461 2.59532L0.863949 2.60142L1.3683 4.66925C1.43498 4.99513 1.70223 5.19062 2.01978 5.19062H2.02007H2.02037H2.02066H2.02096H2.02126H2.02155H2.02185H2.02214H2.02244H2.02274H2.02303H2.02333H2.02362H2.02392H2.02421H2.02451H2.02481H2.0251H2.0254H2.02569H2.02599H2.02628H2.02658H2.02687H2.02717H2.02746H2.02776H2.02805H2.02835H2.02864H2.02894H2.02923H2.02953H2.02982H2.03012H2.03041H2.03071H2.031H2.0313H2.03159H2.03188H2.03218H2.03247H2.03277H2.03306H2.03335H2.03365H2.03394H2.03423H2.03453H2.03482H2.03511H2.0354H2.0357H2.03599H2.03628H2.03657H2.03687H2.03716H2.03745H2.03774H2.03803H2.03833H2.03862H2.03891H2.0392H2.03949H2.03978H2.04007H2.04036H2.04065H2.04094H2.04123H2.04152H2.04181H2.0421H2.04239H2.04268H2.04297H2.04326H2.04355H2.04384H2.04412H2.04441H2.0447H2.04499H2.04527H2.04556H2.04585H2.04614H2.04642H2.04671H2.047H2.04728H2.04757H2.04785H2.04814H2.04842H2.04871H2.04899H2.04928H2.04956H2.04985H2.05013H2.05041H2.0507H2.05098H2.05126H2.05155H2.05183H2.05211H2.05239H2.05267H2.05295H2.05324H2.05352H2.0538H2.05408H2.05436H2.05464H2.05492H2.0552H2.05548H2.05575H2.05603H2.05631H2.05659H2.05687H2.05714H2.05742H2.0577H2.05797H2.05825H2.05853H2.0588H2.05908H2.05935H2.05963H2.0599H2.06017H2.06045H2.06072H2.06099H2.06127H2.06154H2.06181H2.06208H2.06235H2.06263H2.0629H2.06317H2.06344H2.06371H2.06398H2.06424H2.06451H2.06478H2.06505H2.06532H2.06558H2.06585H2.06612H2.06638H2.06665H2.06691H2.06718H2.06744H2.06771H2.06797H2.06824H2.0685H2.06876H2.06902H2.06929H2.06955H2.06981H2.07007H2.07033H2.07059H2.07085H2.07111H2.07137H2.07163H2.07188H2.07214H2.0724H2.07265H2.07291H2.07317H2.07342H2.07368H2.07393H2.07419H2.07444H2.07469H2.07495H2.0752H2.07545H2.0757H2.07595H2.0762H2.07645H2.0767H2.07695H2.0772H2.07745H2.0777H2.07794H2.07819H2.07844H2.07868H2.07893H2.07917H2.07942H2.07966H2.0799H2.08015H2.08039H2.08063H2.08087H2.08112H2.08136H2.0816H2.08184H2.08207H2.08231H2.08255H2.08279H2.08303H2.08326H2.0835H2.08373H2.08397H2.0842H2.08444H2.08467H2.0849H2.08513H2.08537H2.0856H2.08583H2.08606H2.08629H2.08652H2.08675H2.08697H2.0872H2.08743H2.08765H2.08788H2.0881H2.08833H2.08855H2.08878H2.089H2.08922H2.08944H2.08966H2.08988H2.0901H2.09032H2.09054H2.09076H2.09098H2.09119H2.09141H2.09163H2.09184H2.09206H2.09227H2.09248H2.0927H2.09291H2.09312H2.09333H2.09354H2.09375H2.09396H2.09417H2.09438H2.09458H2.09479H2.095H2.0952H2.09541H2.09561H2.09581H2.09601H2.09622H2.09642H2.09662H2.09682H2.09702H2.09722H2.09741H2.09761H2.09781H2.09801H2.0982H2.0984H2.09859H2.09878H2.09897H2.09917H2.09936H2.09955H2.09974H2.09993H2.10012H2.1003H2.10049H2.10068H2.10086H2.10105H2.10123H2.10142H2.1016H2.10178H2.10196H2.10214H2.10232H2.1025H2.10268H2.10286H2.10304H2.10321H2.10339H2.10356H2.10374H2.10391H2.10408H2.10425H2.10443H2.1046H2.10477H2.10493H2.1051H2.10527H2.10544H2.1056H2.10577H2.10593H2.1061H2.10626H2.10642H2.10658H2.10674H2.1069H2.10706H2.10722H2.10738H2.10753H2.10769H2.10784H2.108H2.10815H2.1083H2.10845H2.1086H2.10875H2.1089H2.10905H2.1092H2.10935H2.10949H2.10964H2.10978H2.10993H2.11007H2.11021H2.11035H2.11049H2.11063H2.11077H2.11091H2.11104H2.11118H2.11131H2.11145H2.11158H2.11171H2.11185H2.11198H2.11211H2.11224H2.11236H2.11249H2.11262H2.11274H2.11287H2.11299H2.11311H2.11324H2.11336H2.11348H2.1136H2.11372H2.11383H2.11395H2.11407H2.11418H2.11429H2.11441H2.11452H2.11463H2.11474H2.11485H2.11496H2.11507H2.11517H2.11528H2.11538H2.11549H2.11559H2.11569H2.11579H2.11589H2.11599H2.11609H2.11619H2.11628H2.11638H2.11647H2.11657H2.11666H2.11675H2.11684H2.11693H2.11702H2.11711H2.11719H2.11728H2.11737H2.11745H2.11753H2.11761H2.11769H2.11777H2.11785H2.11793H2.11801H2.11808H2.11816H2.11823H2.11831H2.11838H2.11845H2.11852H2.11859H2.11865H2.11872H2.11879H2.11885H2.11892H2.11898H2.11904H2.1191H2.11916H2.11922H2.11928H2.11933H2.11939H2.11944H2.1195H2.11955H2.1196H2.11965H2.1197H2.11975H2.11979H2.11984H2.11989H2.11993H2.11997H2.12001H2.12006H2.12009H2.12013H2.12017H2.12021H2.12024H2.12028H2.12031H2.12034H2.12037H2.1204H2.12043H2.12046H2.12049H2.12051H2.12054H2.12056H2.12058H2.1206H2.12062H2.12064H2.12066H2.12067H2.12069H2.1207H2.12072H2.12073H2.12074H2.12075H2.12076H2.12077H2.12077H2.12078H2.12078H2.12079H2.13882L2.15633 5.18635L4.22423 4.68198C4.39652 4.6464 4.54181 4.5289 4.62883 4.38652C4.71246 4.24967 4.75217 4.07266 4.69435 3.90111C4.68514 3.70771 4.58209 3.5567 4.438 3.47194C4.29361 3.38701 4.11105 3.36984 3.94499 3.43235Z" fill="#DBF1FF" stroke="#DBF1FF" stroke-width="0.3"/>
    <path d="M8.64687 9.55458L8.65769 9.5627L8.66979 9.56874C8.67376 9.57073 8.67781 9.57276 8.68194 9.57483C8.77368 9.62085 8.90276 9.68559 9.0399 9.68559C9.22496 9.68559 9.42998 9.62221 9.56647 9.42017C9.66943 9.2806 9.69746 9.10062 9.6745 8.93988C9.65135 8.77783 9.57297 8.61153 9.43293 8.5065L7.67475 7.18787V4.48509C7.67475 4.29949 7.61223 4.13316 7.49193 4.01286C7.37162 3.89256 7.2053 3.83004 7.0197 3.83004C6.8341 3.83004 6.66777 3.89256 6.54747 4.01286C6.42717 4.13316 6.36465 4.29949 6.36465 4.48509V7.51539C6.36465 7.70037 6.42797 7.90528 6.62979 8.04177L8.64687 9.55458Z" fill="#DBF1FF" stroke="#DBF1FF" stroke-width="0.3"/>
</svg>
