<svg width="14" height="14" viewBox="0 0 14 14" fill="none" xmlns="http://www.w3.org/2000/svg">
    <path
        d="M8.07223 9.65866C8.17906 9.72674 8.29835 9.77292 8.42317 9.79453C8.548 9.81614 8.67587 9.81274 8.79937 9.78453C8.92287 9.75632 9.03953 9.70386 9.1426 9.63021C9.24566 9.55655 9.33307 9.46315 9.39975 9.35544L9.67511 8.91063C9.72734 8.82625 9.79572 8.75302 9.87632 8.69514C9.95692 8.63725 10.0482 8.59586 10.1448 8.57332C10.2414 8.55078 10.3416 8.54755 10.4395 8.56381C10.5374 8.58006 10.6311 8.61549 10.7152 8.66806L13.2307 10.239C13.3269 10.2991 13.4083 10.3801 13.4688 10.476C13.5294 10.5719 13.5675 10.6802 13.5803 10.7929C13.5932 10.9056 13.5804 11.0197 13.5431 11.1268C13.5057 11.2338 13.4446 11.3311 13.3644 11.4113L12.0363 12.7395C11.6238 13.1519 11.0961 13.4298 10.5226 13.5364C9.94908 13.6431 9.35674 13.5735 8.82356 13.3369C5.18568 11.7226 2.27733 8.8143 0.663028 5.17642C0.426427 4.64324 0.356874 4.0509 0.463531 3.47741C0.570188 2.90392 0.848051 2.37619 1.26052 1.96373L2.58868 0.635568C2.66887 0.555374 2.76613 0.49431 2.8732 0.456925C2.98027 0.419541 3.09439 0.406799 3.20707 0.41965C3.31975 0.4325 3.42808 0.470612 3.52398 0.531145C3.61988 0.591679 3.70089 0.673073 3.76096 0.769263L5.33192 3.28474C5.38448 3.3689 5.41991 3.46262 5.43617 3.56051C5.45243 3.65841 5.44919 3.75854 5.42666 3.85518C5.40412 3.95182 5.36272 4.04306 5.30484 4.12366C5.24695 4.20426 5.17372 4.27264 5.08935 4.32487L4.64454 4.60023C4.53683 4.66691 4.44343 4.75432 4.36977 4.85738C4.29611 4.96045 4.24366 5.07711 4.21545 5.20061C4.18724 5.32411 4.18384 5.45198 4.20545 5.5768C4.22706 5.70163 4.27324 5.82091 4.34132 5.92775C5.29782 7.42872 6.57126 8.70216 8.07223 9.65866Z"
        fill="#2B3C4C" />
</svg>
