<svg width="22" height="20" viewBox="0 0 22 20" fill="none" xmlns="http://www.w3.org/2000/svg">
    <path d="M21.4681 10.3909C21.3342 10.2346 21.1555 10.1453 20.9546 10.1453H12.716L12.4035 8.895C12.3365 8.60475 12.0686 8.40381 11.7783 8.40381H10.1261C10.2378 8.67173 10.2601 8.9843 10.1931 9.27455C10.1485 9.43084 10.0815 9.5648 9.99219 9.69876H11.2871L12.8947 16.1065C12.9616 16.3968 13.2296 16.5977 13.5198 16.5977H19.7043C19.9945 16.5977 20.2625 16.3968 20.3295 16.1065L21.5797 10.9491C21.6244 10.7481 21.5797 10.5472 21.4681 10.3909Z" fill="white"/>
    <path d="M9.09906 8.06852L7.58085 7.66663C7.58085 7.66663 6.21892 5.59025 6.06263 5.34466C5.90635 5.09906 5.50447 4.58555 4.67838 4.5409C3.85229 4.49624 3.09318 4.98743 2.89224 5.74654C2.80293 6.08144 1.97685 10.1449 1.90987 10.4351C1.86521 10.7254 1.84289 11.1049 1.84289 11.4622C1.84289 11.8194 1.93219 13.8958 1.93219 13.8958L0.458631 18.1602C0.280018 18.6737 0.547938 19.2319 1.06145 19.4328C1.17309 19.4775 1.28472 19.4998 1.41868 19.4998C1.82056 19.4998 2.20011 19.2542 2.3564 18.8523L4.09788 14.387C4.14254 14.253 4.16486 14.1414 4.16486 14.0074L4.14254 13.0027L5.10258 14.4093L5.66075 18.629C5.72773 19.1202 6.15194 19.4998 6.64313 19.4998C6.68778 19.4998 6.71011 19.4998 6.75476 19.4998C7.2906 19.4328 7.69248 18.9416 7.6255 18.4058L7.17897 13.9404C7.15664 13.7618 7.11199 13.6055 7.00035 13.4716L5.19189 10.8817C5.32585 10.2789 5.59377 9.16252 5.79471 8.26946L6.24125 8.96158C6.37521 9.1402 6.55382 9.29648 6.77709 9.34114L8.6302 9.83232C8.71951 9.85465 8.78649 9.85465 8.8758 9.85465C9.27768 9.85465 9.65723 9.58673 9.74654 9.18485C9.8805 8.69366 9.59025 8.18015 9.09906 8.06852Z" fill="white"/>
    <path d="M5.10276 4.16158C6.11388 4.16158 6.93355 3.34191 6.93355 2.33079C6.93355 1.31967 6.11388 0.5 5.10276 0.5C4.09165 0.5 3.27197 1.31967 3.27197 2.33079C3.27197 3.34191 4.09165 4.16158 5.10276 4.16158Z" fill="white"/>
</svg>
