<svg width="42" height="42" viewBox="0 0 42 42" fill="none" xmlns="http://www.w3.org/2000/svg">
    <circle cx="21" cy="21" r="21" fill="#15A608"/>
    <path d="M32.282 20.9318C32.134 20.7591 31.9366 20.6604 31.7145 20.6604H22.6087L22.2632 19.2785C22.1892 18.9577 21.8931 18.7356 21.5723 18.7356H19.7462C19.8696 19.0317 19.8943 19.3772 19.8202 19.698C19.7709 19.8707 19.6969 20.0188 19.5981 20.1669H21.0294L22.8061 27.2491C22.8802 27.5699 23.1763 27.792 23.4971 27.792H30.3326C30.6534 27.792 30.9495 27.5699 31.0235 27.2491L32.4054 21.5488C32.4548 21.3267 32.4054 21.1046 32.282 20.9318Z" fill="white"/>
    <path d="M24.4597 30.9753C25.1548 30.9753 25.7182 30.4118 25.7182 29.7168C25.7182 29.0217 25.1548 28.4583 24.4597 28.4583C23.7646 28.4583 23.2012 29.0217 23.2012 29.7168C23.2012 30.4118 23.7646 30.9753 24.4597 30.9753Z" fill="white"/>
    <path d="M29.0002 30.9753C29.6953 30.9753 30.2587 30.4118 30.2587 29.7168C30.2587 29.0217 29.6953 28.4583 29.0002 28.4583C28.3052 28.4583 27.7417 29.0217 27.7417 29.7168C27.7417 30.4118 28.3052 30.9753 29.0002 30.9753Z" fill="white"/>
    <path d="M18.6111 18.3654L16.933 17.9212C16.933 17.9212 15.4278 15.6263 15.255 15.3549C15.0823 15.0834 14.6381 14.5158 13.7251 14.4665C12.812 14.4171 11.973 14.96 11.7509 15.799C11.6522 16.1692 10.7392 20.6604 10.6651 20.9812C10.6158 21.302 10.5911 21.7215 10.5911 22.1163C10.5911 22.5111 10.6898 24.8061 10.6898 24.8061L9.06113 29.5194C8.86372 30.0869 9.15984 30.7039 9.72741 30.9259C9.85079 30.9753 9.97418 31 10.1222 31C10.5664 31 10.9859 30.7285 11.1587 30.2843L13.0835 25.349C13.1328 25.2009 13.1575 25.0775 13.1575 24.9295L13.1328 23.819L14.1939 25.3737L14.8108 30.0376C14.8849 30.5805 15.3537 31 15.8966 31C15.946 31 15.9707 31 16.02 31C16.6122 30.9259 17.0564 30.3831 16.9824 29.7908L16.4889 24.8554C16.4642 24.658 16.4148 24.4853 16.2915 24.3372L14.2926 21.4747C14.4407 20.8084 14.7368 19.5746 14.9589 18.5875L15.4524 19.3525C15.6005 19.5499 15.7979 19.7227 16.0447 19.772L18.0929 20.3149C18.1916 20.3396 18.2656 20.3396 18.3643 20.3396C18.8085 20.3396 19.228 20.0435 19.3267 19.5993C19.4748 19.0564 19.154 18.4888 18.6111 18.3654Z" fill="white"/>
    <path d="M14.1939 14.047C15.3115 14.047 16.2174 13.1411 16.2174 12.0235C16.2174 10.906 15.3115 10 14.1939 10C13.0764 10 12.1704 10.906 12.1704 12.0235C12.1704 13.1411 13.0764 14.047 14.1939 14.047Z" fill="white"/>
</svg>
