<svg width="22" height="26" viewBox="0 0 22 26" fill="none" xmlns="http://www.w3.org/2000/svg">
    <path
        d="M10.9099 14.9505C9.98449 14.9507 9.08762 14.63 8.37213 14.0431C7.65664 13.4561 7.1668 12.6393 6.98608 11.7316C6.80535 10.824 6.94493 9.88183 7.38102 9.06559C7.81711 8.24934 8.52273 7.60957 9.37766 7.25526C10.2326 6.90096 11.1839 6.85405 12.0695 7.12254C12.9552 7.39102 13.7203 7.95828 14.2346 8.72767C14.7488 9.49705 14.9804 10.4209 14.8899 11.3419C14.7993 12.2629 14.3922 13.124 13.7379 13.7785C12.9879 14.5287 11.9707 14.9503 10.9099 14.9505ZM10.9099 8.9505C10.4472 8.9504 9.99877 9.11075 9.64102 9.40422C9.28328 9.69769 9.03836 10.1061 8.948 10.5599C8.85764 11.0137 8.92742 11.4848 9.14547 11.893C9.36351 12.3011 9.71633 12.621 10.1438 12.7981C10.5712 12.9753 11.0469 12.9987 11.4897 12.8645C11.9325 12.7302 12.3151 12.4466 12.5722 12.0619C12.8294 11.6772 12.9452 11.2153 12.8999 10.7548C12.8546 10.2943 12.6511 9.86374 12.3239 9.5365C11.9489 9.1614 11.4403 8.95061 10.9099 8.9505Z"
        fill="#fff" />
    <path
        d="M11.0001 25.0495L10.3001 24.4495C9.33506 23.6415 0.909058 16.3645 0.909058 11.0415C0.909058 8.3652 1.97221 5.79852 3.86464 3.90609C5.75707 2.01366 8.32376 0.9505 11.0001 0.9505C13.6764 0.9505 16.243 2.01366 18.1355 3.90609C20.0279 5.79852 21.0911 8.3652 21.0911 11.0415C21.0911 16.3645 12.6651 23.6415 11.7041 24.4535L11.0001 25.0495ZM11.0001 3.1295C8.90319 3.13188 6.89289 3.96591 5.41018 5.44862C3.92747 6.93133 3.09344 8.94163 3.09106 11.0385C3.09106 14.3825 8.27506 19.7245 11.0001 22.1695C13.7251 19.7235 18.9091 14.3785 18.9091 11.0385C18.9067 8.94163 18.0726 6.93133 16.5899 5.44862C15.1072 3.96591 13.0969 3.13188 11.0001 3.1295Z"
        fill="#fff" />
</svg>
