<svg width="13" height="14" viewBox="0 0 13 14" fill="none" xmlns="http://www.w3.org/2000/svg">
    <path d="M5.1888 5.4H5.35V4.9V2.26667C5.35 1.72804 4.91349 1.33333 4.41667 1.33333H1.76667C1.22804 1.33333 0.833333 1.76984 0.833333 2.26667V4.9C0.833333 5.43863 1.26985 5.83333 1.76667 5.83333H4.4C4.74275 5.83333 5.02722 5.65658 5.1888 5.4ZM1.76667 1H4.4C5.10719 1 5.66667 1.55948 5.66667 2.26667V4.9C5.66667 5.61029 5.1041 6.16667 4.41667 6.16667H1.76667C1.05638 6.16667 0.5 5.6041 0.5 4.91667V2.26667C0.5 1.55948 1.05948 1 1.76667 1Z" fill="#DBF1FF" stroke="#DBF1FF"/>
    <path d="M11.2499 6.16667H8.59992C7.88963 6.16667 7.33325 5.6041 7.33325 4.91667V2.26667C7.33325 1.55948 7.89273 1 8.59992 1H11.2333C11.9404 1 12.4999 1.55948 12.4999 2.26667V4.9C12.4999 5.61029 11.9374 6.16667 11.2499 6.16667ZM8.59992 1.33333C8.06129 1.33333 7.66659 1.76984 7.66659 2.26667V4.91667C7.66659 5.4553 8.1031 5.85 8.59992 5.85H11.2499C11.7885 5.85 12.1833 5.41349 12.1833 4.91667V2.26667C12.1833 1.72804 11.7467 1.33333 11.2499 1.33333H8.59992Z" fill="#DBF1FF" stroke="#DBF1FF"/>
    <path d="M5.1888 12.2333H5.35V11.7333V9.09998C5.35 8.56135 4.91349 8.16665 4.41667 8.16665H1.76667C1.22804 8.16665 0.833333 8.60316 0.833333 9.09998V11.7333C0.833333 12.2719 1.26985 12.6666 1.76667 12.6666H4.4C4.74275 12.6666 5.02722 12.4899 5.1888 12.2333ZM1.76667 7.83331H4.4C5.10719 7.83331 5.66667 8.39279 5.66667 9.09998V11.7333C5.66667 12.4436 5.1041 13 4.41667 13H1.76667C1.05638 13 0.5 12.4374 0.5 11.75V9.09998C0.5 8.39279 1.05948 7.83331 1.76667 7.83331Z" fill="#DBF1FF" stroke="#DBF1FF"/>
    <path d="M12.4999 10.4166C12.4999 11.8405 11.3404 13 9.91659 13C8.49273 13 7.33325 11.8405 7.33325 10.4166C7.33325 8.99279 8.49273 7.83331 9.91659 7.83331C11.3404 7.83331 12.4999 8.99279 12.4999 10.4166ZM12.1666 10.4166C12.1666 9.17384 11.1594 8.16665 9.91659 8.16665C8.67378 8.16665 7.66659 9.17384 7.66659 10.4166C7.66659 11.6595 8.67378 12.6666 9.91659 12.6666C11.1594 12.6666 12.1666 11.6595 12.1666 10.4166Z" fill="#DBF1FF" stroke="#DBF1FF"/>
</svg>
