<svg width="15" height="16" viewBox="0 0 15 16" fill="none" xmlns="http://www.w3.org/2000/svg">
    <path d="M7.5 1.59496H3.96446L4.2504 1.31931C4.56612 1.01524 4.56612 0.523605 4.2504 0.219534C3.94361 -0.0760128 3.39257 -0.0703292 3.0977 0.219534L1.43268 1.83367C1.28674 1.97292 1.20334 2.17469 1.20334 2.38214C1.20334 2.58959 1.28971 2.7942 1.43566 2.93344L3.10067 4.53053C3.25854 4.68115 3.44619 4.75503 3.67851 4.75503C3.94956 4.75503 4.13423 4.62431 4.21168 4.57032L4.25338 4.53622C4.5691 4.23214 4.5691 3.74051 4.25338 3.43644L3.96743 3.16079H7.50298C10.7407 3.16079 13.3737 5.68714 13.3737 8.79322C13.3737 11.8993 10.7407 14.4427 7.50298 14.4427C4.26529 14.4427 1.62927 11.9135 1.62927 8.80459C1.62927 7.61672 2.00159 6.49421 2.70155 5.56494C2.96366 5.22961 2.88622 4.7323 2.53475 4.47654C2.19222 4.22646 1.64714 4.30035 1.38503 4.64136C0.479547 5.86901 0 7.3098 0 8.80459C0 12.7717 3.36279 16 7.5 16C11.6372 16 15 12.7717 15 8.80459C15 4.83744 11.6342 1.59496 7.5 1.59496Z" fill="white"/>
    <path d="M7.62808 4.90565C6.9579 4.90565 6.40985 5.4257 6.40985 6.06794V6.13046H5.96604C5.51033 6.13046 5.13503 6.45727 5.09631 6.89206L4.72994 10.97C4.70909 11.2087 4.78654 11.4276 4.95631 11.6038C5.12609 11.7799 5.34948 11.8737 5.59968 11.8737H9.64754C9.89774 11.8737 10.1211 11.7799 10.2909 11.6038C10.4607 11.4276 10.5381 11.2087 10.5173 10.97L10.1509 6.89206C10.1122 6.45727 9.73689 6.13046 9.28117 6.13046H8.84928V6.06794C8.84928 5.42854 8.30421 4.90565 7.63106 4.90565H7.62808ZM7.2081 6.06794C7.2081 5.84628 7.39575 5.66725 7.62808 5.66725C7.86041 5.66725 8.04805 5.84628 8.04805 6.06794V6.13046H7.20512V6.06794H7.2081ZM8.84631 6.88922H9.2782C9.3199 6.88922 9.35266 6.91764 9.35564 6.95742L9.722 11.0354C9.722 11.061 9.722 11.0723 9.70115 11.0922C9.68328 11.1093 9.67137 11.115 9.64456 11.115H5.5967C5.5699 11.115 5.55798 11.1093 5.54011 11.0922C5.52224 11.0752 5.51926 11.061 5.51926 11.0354L5.88562 6.95742C5.8886 6.91764 5.92137 6.89206 5.96307 6.89206H6.40687V7.16771C6.40687 7.37801 6.58558 7.54851 6.806 7.54851C7.02641 7.54851 7.20512 7.37801 7.20512 7.16771V6.89206H8.04805V7.16771C8.04805 7.37801 8.22677 7.54851 8.44718 7.54851C8.66759 7.54851 8.84631 7.37801 8.84631 7.16771V6.88922Z" fill="white"/>
</svg>
