<svg width="14" height="16" viewBox="0 0 14 16" fill="none" xmlns="http://www.w3.org/2000/svg">
    <path d="M7 1.59496H3.70016L3.96704 1.31931C4.26172 1.01524 4.26172 0.523605 3.96704 0.219534C3.6807 -0.0760127 3.1664 -0.0703291 2.89118 0.219534L1.33717 1.83367C1.20095 1.97292 1.12311 2.17469 1.12311 2.38214C1.12311 2.58959 1.20373 2.7942 1.33995 2.93344L2.89396 4.53053C3.0413 4.68115 3.21644 4.75503 3.43328 4.75503C3.68626 4.75503 3.85862 4.62431 3.9309 4.57032L3.96982 4.53621C4.2645 4.23214 4.2645 3.74051 3.96982 3.43644L3.70294 3.16079H7.00278C10.0246 3.16079 12.4821 5.68714 12.4821 8.79322C12.4821 11.8993 10.0246 14.4427 7.00278 14.4427C3.98094 14.4427 1.52065 11.9135 1.52065 8.80458C1.52065 7.61672 1.86815 6.49421 2.52145 5.56494C2.76608 5.22961 2.6938 4.7323 2.36577 4.47654C2.04607 4.22646 1.53733 4.30035 1.29269 4.64136C0.447578 5.86901 0 7.3098 0 8.80458C0 12.7717 3.1386 16 7 16C10.8614 16 14 12.7717 14 8.80458C14 4.83744 10.8586 1.59496 7 1.59496Z" fill="white"/>
    <path d="M8.10921 9.79085C8.26767 9.79085 8.41223 9.69991 8.48173 9.55498C8.58459 9.34468 8.50119 9.08892 8.29547 8.98378L7.41422 8.53193V6.80697C7.41422 6.5711 7.22796 6.3807 6.99722 6.3807C6.76648 6.3807 6.58022 6.5711 6.58022 6.80697V8.79622C6.58022 8.9582 6.66918 9.10597 6.81096 9.17702L7.92296 9.74538C7.98134 9.7738 8.04527 9.79085 8.10921 9.79085Z" fill="white"/>
    <path d="M10.475 8.79622C10.475 6.83822 8.91541 5.24398 7 5.24398C5.08459 5.24398 3.52502 6.83822 3.52502 8.79622C3.52502 10.7542 5.08459 12.3485 7 12.3485C8.91541 12.3485 10.475 10.7542 10.475 8.79622ZM4.35902 8.79622C4.35902 7.30712 5.54329 6.09652 7 6.09652C8.45671 6.09652 9.64099 7.30712 9.64099 8.79622C9.64099 10.2853 8.45671 11.4959 7 11.4959C5.54329 11.4959 4.35902 10.2853 4.35902 8.79622Z" fill="white"/>
</svg>
