<svg width="26" height="26" viewBox="0 0 26 26" fill="none" xmlns="http://www.w3.org/2000/svg">
    <path d="M20.7393 11.7147H21.069C21.5849 11.7147 22 11.2849 22 10.7506V5.60846C22 5.21878 21.775 4.86526 21.4259 4.71662C21.0768 4.56798 20.6772 4.64833 20.4096 4.92552L18.7959 6.59671C15.3978 3.12176 9.92436 3.13381 6.54566 6.63688C3.15145 10.152 3.15145 15.8485 6.54566 19.3637C9.93987 22.8788 15.4404 22.8788 18.8347 19.3637C19.3195 18.8615 19.3195 18.046 18.8347 17.5438C18.3498 17.0417 17.5623 17.0417 17.0774 17.5438C14.653 20.0546 10.7235 20.0546 8.29901 17.5438C5.87458 15.033 5.87458 10.9635 8.29901 8.4527C10.7118 5.95395 14.6103 5.94189 17.0386 8.41253L15.4443 10.0676C15.1767 10.3448 15.0991 10.7586 15.2426 11.1202C15.3861 11.4817 15.7275 11.7147 16.1038 11.7147H20.7393Z" fill="#D0D1DF"/>
</svg>
