<svg width="25" height="16" viewBox="0 0 25 16" fill="none" xmlns="http://www.w3.org/2000/svg">
    <path d="M23.3445 8.55859H1.09784C0.784293 8.55859 0.531189 8.30549 0.531189 7.99194C0.531189 7.6784 0.784293 7.42529 1.09784 7.42529H23.3445C23.6581 7.42529 23.9112 7.6784 23.9112 7.99194C23.9112 8.30549 23.6581 8.55859 23.3445 8.55859Z" fill="white"/>
    <path d="M18.2295 15.0222C18.0973 15.0222 17.9613 14.9769 17.8517 14.8786C17.6175 14.6709 17.5986 14.312 17.8064 14.0778L23.1442 8.08261L17.8026 1.91746C17.5986 1.67946 17.6251 1.32436 17.8593 1.11659C18.0973 0.912597 18.4524 0.935263 18.6602 1.17326L24.3304 7.7124C24.5155 7.92773 24.5155 8.24883 24.3267 8.46038L18.6564 14.8258C18.543 14.9504 18.3882 15.0146 18.2333 15.0146L18.2295 15.0222Z" fill="white"/>
</svg>
