<svg width="32" height="32" viewBox="0 0 32 32" fill="none" xmlns="http://www.w3.org/2000/svg">
    <rect width="32" height="32" rx="4" fill="#57536C"/>
    <path d="M21.0006 14.499C21.0006 15.9332 20.535 17.258 19.7506 18.3329L23.707 22.2917C24.0977 22.6822 24.0977 23.3165 23.707 23.7071C23.3164 24.0976 22.682 24.0976 22.2913 23.7071L18.3349 19.7483C17.2598 20.5357 15.9348 20.9981 14.5003 20.9981C10.9095 20.9981 8 18.0891 8 14.499C8 10.9089 10.9095 8 14.5003 8C18.0911 8 21.0006 10.9089 21.0006 14.499ZM14.5003 18.9984C15.0913 18.9984 15.6765 18.882 16.2225 18.6559C16.7685 18.4298 17.2646 18.0984 17.6825 17.6806C18.1003 17.2628 18.4318 16.7668 18.658 16.2209C18.8841 15.675 19.0005 15.0899 19.0005 14.499C19.0005 13.9082 18.8841 13.3231 18.658 12.7772C18.4318 12.2313 18.1003 11.7353 17.6825 11.3175C17.2646 10.8997 16.7685 10.5683 16.2225 10.3422C15.6765 10.1161 15.0913 9.99971 14.5003 9.99971C13.9093 9.99971 13.3242 10.1161 12.7782 10.3422C12.2322 10.5683 11.7361 10.8997 11.3182 11.3175C10.9003 11.7353 10.5688 12.2313 10.3427 12.7772C10.1165 13.3231 10.0001 13.9082 10.0001 14.499C10.0001 15.0899 10.1165 15.675 10.3427 16.2209C10.5688 16.7668 10.9003 17.2628 11.3182 17.6806C11.7361 18.0984 12.2322 18.4298 12.7782 18.6559C13.3242 18.882 13.9093 18.9984 14.5003 18.9984Z" fill="#F0ECF9"/>
</svg>
