<svg width="14" height="14" viewBox="0 0 14 14" fill="none" xmlns="http://www.w3.org/2000/svg">
    <path d="M7 1.7153C7.13606 1.7153 7.27152 1.72046 7.40617 1.73071L7.8608 0.943267C8.22651 0.309853 9.03645 0.0928286 9.66986 0.458531L11.3301 1.41709C11.9636 1.78279 12.1806 2.59274 11.8149 3.22615L11.3604 4.01338C11.5138 4.23707 11.65 4.47231 11.7674 4.71711H12.6757C13.4071 4.71711 14 5.31003 14 6.04143V7.95855C14 8.68995 13.4071 9.28287 12.6757 9.28287H11.7674C11.65 9.52767 11.5138 9.76291 11.3604 9.9866L11.8149 10.7738C12.1806 11.4072 11.9636 12.2172 11.3301 12.5829L9.66986 13.5414C9.03645 13.9071 8.22651 13.6901 7.8608 13.0567L7.40617 12.2693C7.27152 12.2795 7.13606 12.2847 7 12.2847C6.86395 12.2847 6.72848 12.2795 6.59383 12.2693L6.1392 13.0567C5.7735 13.6901 4.96355 13.9071 4.33014 13.5414L2.66986 12.5829C2.03645 12.2172 1.81943 11.4072 2.18513 10.7738L2.63963 9.9866C2.48616 9.76291 2.35003 9.52767 2.23262 9.28287H1.32432C0.59292 9.28287 0 8.68995 0 7.95855L0 6.04143C0 5.31003 0.59292 4.71711 1.32432 4.71711H2.23262C2.35003 4.47231 2.48616 4.23707 2.63963 4.01338L2.18513 3.22615C1.81943 2.59274 2.03645 1.78279 2.66986 1.41709L4.33014 0.458531C4.96355 0.0928286 5.7735 0.309853 6.1392 0.943267L6.59383 1.73071C6.72849 1.72046 6.86395 1.7153 7 1.7153ZM5.15614 1.51083C5.1039 1.42035 4.98819 1.38934 4.8977 1.44159L3.23743 2.40015C3.14694 2.45239 3.11594 2.56809 3.16818 2.65858L4.00283 4.10423L3.76017 4.40698C3.49759 4.73458 3.28589 5.09999 3.13314 5.49114L2.99211 5.85224H1.32432C1.21984 5.85224 1.13513 5.93694 1.13513 6.04143L1.13513 7.95855C1.13513 8.06303 1.21984 8.14774 1.32432 8.14774H2.99211L3.13314 8.50884C3.28589 8.89998 3.49759 9.2654 3.76017 9.593L4.00283 9.89574L3.16818 11.3414C3.11594 11.4319 3.14694 11.5476 3.23743 11.5998L4.8977 12.5584C4.98819 12.6106 5.1039 12.5796 5.15614 12.4891L5.99015 11.0446L6.37301 11.1026C6.57909 11.1338 6.78845 11.1495 7 11.1495C7.21155 11.1495 7.42092 11.1338 7.62699 11.1026L8.00985 11.0446L8.84386 12.4891C8.8961 12.5796 9.01181 12.6106 9.1023 12.5584L10.7626 11.5998C10.8531 11.5476 10.8841 11.4319 10.8318 11.3414L9.99717 9.89574L10.2398 9.593C10.5024 9.2654 10.7141 8.89998 10.8669 8.50884L11.0079 8.14774H12.6757C12.7802 8.14774 12.8649 8.06303 12.8649 7.95855V6.04143C12.8649 5.93694 12.7802 5.85224 12.6757 5.85224H11.0079L10.8669 5.49114C10.7141 5.09999 10.5024 4.73458 10.2398 4.40698L9.99717 4.10423L10.8318 2.65858C10.8841 2.56809 10.8531 2.45239 10.7626 2.40015L9.1023 1.44159C9.01181 1.38934 8.8961 1.42035 8.84386 1.51083L8.00985 2.95538L7.62699 2.89742C7.42092 2.86622 7.21155 2.85044 7 2.85044C6.78845 2.85044 6.57909 2.86622 6.37301 2.89742L5.99015 2.95538L5.15614 1.51083Z" fill="#DBF1FF"/>
    <path d="M5.8587 8.97704C6.95059 9.60744 8.34678 9.23333 8.97718 8.14145C9.60758 7.04956 9.23347 5.65337 8.14159 5.02297C7.0497 4.39257 5.65351 4.76668 5.02311 5.85857C4.39271 6.95045 4.76682 8.34664 5.8587 8.97704ZM6.42627 7.99399C5.87731 7.67704 5.68922 6.97509 6.00617 6.42613C6.32311 5.87717 7.02506 5.68909 7.57402 6.00603C8.12298 6.32297 8.31106 7.02492 7.99412 7.57388C7.67718 8.12284 6.97523 8.31093 6.42627 7.99399Z" fill="#DBF1FF"/>
</svg>
