<svg width="32" height="32" viewBox="0 0 32 32" fill="none" xmlns="http://www.w3.org/2000/svg">
    <rect width="32" height="32" rx="4" fill="#57536C"/>
    <path d="M15.5289 14.3241C15.7975 14.5893 16.2303 14.5893 16.4989 14.3241C16.7675 14.0589 16.7675 13.6317 16.4989 13.3665L13.2905 10.1989C13.0219 9.9337 12.5891 9.9337 12.3205 10.1989L9.1121 13.3665C8.84349 13.6317 8.84349 14.0589 9.1121 14.3241C9.24641 14.4567 9.42548 14.5157 9.58963 14.5157C9.75378 14.5157 9.93286 14.4567 10.0672 14.3241L12.1265 12.3057V21.2339C12.1265 21.6022 12.425 21.9116 12.813 21.9116C13.201 21.9116 13.4994 21.617 13.4994 21.2339V12.3057L15.5289 14.3241Z" fill="#F0ECF9" stroke="white" stroke-width="0.5"/>
    <path d="M22.9008 17.6833C22.6321 17.4181 22.1994 17.4181 21.9308 17.6833L19.8863 19.7017V10.7735C19.8863 10.4052 19.5879 10.0958 19.1999 10.0958C18.8119 10.0958 18.5134 10.3905 18.5134 10.7735V19.7017L16.4839 17.6833C16.2153 17.4181 15.7826 17.4181 15.514 17.6833C15.2453 17.9485 15.2453 18.3758 15.514 18.641L18.7224 21.8086C18.8567 21.9412 19.0357 22.0001 19.1999 22.0001C19.364 22.0001 19.5431 21.9412 19.6774 21.8086L22.8858 18.641C23.1544 18.3758 23.1544 17.9485 22.9008 17.6833Z" fill="#F0ECF9" stroke="white" stroke-width="0.5"/>
</svg>
