<svg width="10" height="11" viewBox="0 0 10 11" fill="none" xmlns="http://www.w3.org/2000/svg">
    <path d="M5.37503 1.77966C2.91345 1.77966 0.910767 3.78225 0.910767 6.24393C0.910767 8.7056 2.91345 10.7082 5.37503 10.7082C7.83661 10.7082 9.8393 8.7056 9.8393 6.24393C9.8393 3.78225 7.83661 1.77966 5.37503 1.77966ZM5.37503 9.7377C3.44855 9.7377 1.88126 8.17032 1.88126 6.24393C1.88126 4.31754 3.44855 2.75016 5.37503 2.75016C7.30152 2.75016 8.8688 4.31754 8.8688 6.24393C8.8688 8.17032 7.30152 9.7377 5.37503 9.7377Z" fill="white"/>
    <path d="M5.375 3.50006C5.09888 3.50006 4.875 3.68271 4.875 3.90844V6.09169C4.875 6.31741 5.09888 6.50006 5.375 6.50006C5.65112 6.50006 5.875 6.31741 5.875 6.09169V3.90844C5.875 3.68271 5.65112 3.50006 5.375 3.50006Z" fill="white"/>
    <path d="M4.58506 1.45646C4.84128 1.41182 5.10525 1.39046 5.37505 1.39046C5.6429 1.39046 5.90687 1.41182 6.16309 1.45646C6.47752 1.45064 6.73374 1.19055 6.73374 0.874166C6.73374 0.715003 6.67162 0.56943 6.56293 0.462678C6.45229 0.35204 6.30672 0.29187 6.15144 0.29187H4.59865C4.27839 0.29187 4.01636 0.551967 4.01636 0.874166C4.01636 1.02944 4.07653 1.17502 4.18717 1.28565C4.29392 1.39241 4.4356 1.45258 4.58506 1.45646Z" fill="white"/>
    <path d="M9.31136 3.40715L9.34241 3.3761C9.48799 3.22858 9.5695 3.03254 9.5695 2.82486C9.5695 2.61524 9.48799 2.4192 9.34241 2.27557C9.1949 2.12999 9.0008 2.04846 8.79311 2.04846C8.58542 2.04846 8.39133 2.12999 8.24382 2.27557L8.21082 2.30856C8.63395 2.6133 9.00468 2.98402 9.31136 3.40715Z" fill="white"/>
</svg>
