<svg width="64" height="87" viewBox="0 0 64 87" fill="none" xmlns="http://www.w3.org/2000/svg">
    <path d="M12.0181 23.5887H6.71648C6.6633 23.59 6.61921 23.5459 6.61921 23.4928V4.43529C6.61791 4.38212 6.57382 4.33802 6.52065 4.33802L0.097265 4.3458C0.0440935 4.3458 0 4.30171 0 4.24854V0.0972651C0.00129687 0.0440935 0.0453904 0 0.0985619 0L18.5828 0.0181561C18.636 0.0181561 18.6788 0.0609528 18.6801 0.114124L18.7164 4.23557C18.7164 4.28874 18.6723 4.33283 18.6191 4.33283L12.2152 4.3484C12.162 4.3484 12.1179 4.39249 12.1179 4.44566L12.1153 23.4915C12.1153 23.5446 12.0712 23.5887 12.0181 23.5887Z" fill="white"/>
    <path d="M42.1625 13.4031C43.2493 15.6091 43.5476 18.2456 43.2532 20.7019C42.6566 25.6715 39.0747 29.6879 34.1427 30.7163C32.8108 30.9938 31.3739 31.0742 29.8319 30.9575C25.6716 30.6411 22.0053 28.3871 20.1158 24.6262C18.4869 21.384 18.4013 17.3339 19.7605 14.0113C22.0935 8.30511 28.2173 5.96556 34.0065 7.17814C37.7908 7.97052 40.509 10.0455 42.1625 13.4031ZM33.2479 26.1669C37.1631 25.0101 38.1552 20.7524 37.6118 17.1718C37.4484 16.0993 37.0866 15.0981 36.5277 14.1708C34.5668 10.9222 29.4143 10.5305 26.7078 12.9414C24.6406 14.7843 24.271 17.7502 24.5433 20.3634C24.778 22.6109 25.8713 24.7105 27.9126 25.7454C29.4934 26.5469 31.536 26.6714 33.2479 26.1669Z" fill="white"/>
    <path d="M60.1085 42.0574L63.2262 50.1149C63.2366 50.1434 63.2236 50.1745 63.1964 50.1849C63.1899 50.1875 63.1834 50.1888 63.1756 50.1888C61.7478 50.1771 60.3173 50.1784 58.8817 50.1927C57.9285 50.2018 57.4046 49.7128 57.092 48.818C56.6563 47.5704 56.2374 46.3332 55.8353 45.1064C55.7938 44.9793 55.6758 44.8924 55.5423 44.8924H47.0179C46.9181 44.8924 46.8286 44.9559 46.7949 45.0506C46.3384 46.3565 45.8987 47.643 45.4773 48.9101C45.2814 49.4989 44.6538 50.168 43.9677 50.1719C42.6177 50.1797 41.2663 50.1849 39.915 50.1875C39.7516 50.1875 39.5947 50.2043 39.4455 50.2368C39.4066 50.2458 39.369 50.2212 39.3599 50.1823C39.3573 50.168 39.3586 50.1538 39.3638 50.1408L44.5889 36.6404L48.4263 26.7298C48.4614 26.639 48.5495 26.5793 48.6468 26.5793L54.0171 26.5858C54.0872 26.5858 54.1494 26.6286 54.1754 26.6947L60.1085 42.0574ZM48.1216 41.0524C48.0905 41.1392 48.1216 41.1833 48.2137 41.1833L54.4088 41.1885C54.4425 41.1885 54.4697 41.1613 54.4697 41.1276C54.4697 41.1224 54.4697 41.1172 54.4671 41.112C54.414 40.9149 54.3543 40.7139 54.2856 40.5103C53.5399 38.3056 52.7903 36.1022 52.0342 33.9001C51.828 33.2997 51.6179 32.6461 51.4052 31.9419C51.3248 31.676 51.2483 31.6773 51.1744 31.9458C50.7023 33.6745 49.9709 35.5938 49.4742 37.1125C49.0631 38.3717 48.6118 39.6855 48.1216 41.0524Z" fill="white"/>
    <path d="M4.86446 30.2987C7.68255 30.3104 10.5629 30.1717 13.368 30.4634C14.8789 30.6204 16.5051 31.2675 17.7281 32.1234C19.1222 33.1985 19.9782 34.5914 20.2972 36.3019C20.886 39.4533 19.973 42.9717 17.0356 44.6473C15.7698 45.3696 14.5015 45.7885 13.2318 45.9065C11.5602 46.0622 9.88463 46.1063 8.20519 46.0401C8.16499 46.0375 8.12997 46.07 8.12738 46.1115C8.12738 46.1127 8.12738 46.114 8.12738 46.1153L8.13386 49.5339V53.8473C8.13386 53.894 8.09625 53.9329 8.04957 53.9329H2.72463C2.65978 53.9329 2.60791 53.8797 2.60791 53.8148V49.3718V30.3662C2.60921 30.3299 2.63774 30.3013 2.67405 30.3013L4.86316 30.2987H4.86446ZM8.12089 34.5317L8.13386 41.7994C8.13386 41.8474 8.17277 41.885 8.22075 41.885L11.4927 41.8798C13.4277 41.8759 14.9943 40.3002 14.9904 38.3601V37.9451C14.9865 36.005 13.4147 34.4345 11.4798 34.4383L8.20778 34.4448C8.1598 34.4448 8.12089 34.4837 8.12089 34.5317Z" fill="white"/>
    <path d="M41.3904 60.5171L41.3969 61.194C41.3969 61.2679 41.3373 61.3289 41.2633 61.3302C41.2633 61.3302 41.2633 61.3302 41.262 61.3302L27.287 61.3263C27.2131 61.3263 27.1768 61.29 27.1768 61.2161L27.1794 53.2624V37.8193C27.1794 37.7596 27.2079 37.7298 27.2675 37.7298L32.5899 37.7324C32.6418 37.7324 32.6846 37.7752 32.6846 37.8271L32.6794 56.7237C32.6794 56.8755 32.7559 56.952 32.9089 56.952L41.3126 56.9481C41.358 56.9481 41.38 56.9701 41.3813 57.0155L41.3904 60.5171Z" fill="white"/>
    <path d="M43.8588 83.2706C38.9566 85.9979 33.1233 87.038 27.6233 86.3078C21.7575 85.5297 16.7024 83.0384 12.4603 78.8327C11.9117 78.2893 11.345 77.6162 10.7873 77.0041C10.3503 76.5243 10.1013 75.9588 10.0416 75.3091C9.86657 73.3975 11.5084 71.9904 13.3629 72.3159C14.1281 72.4508 14.6118 72.8839 15.1656 73.5298C18.7125 77.6707 23.1971 80.1036 28.6167 80.8299C29.9343 81.0062 31.51 81.0205 32.8691 80.8986C38.4236 80.4058 43.6915 77.6824 47.1826 73.3612C47.5963 72.8502 48.0904 72.5156 48.6663 72.3574C49.0281 72.2589 49.6791 72.2381 50.0604 72.3341C52.1289 72.858 52.8305 75.2391 51.496 76.8718C49.3471 79.5019 46.8014 81.6352 43.8588 83.2706Z" fill="white"/>
</svg>
