<svg width="28" height="29" viewBox="0 0 28 29" fill="none" xmlns="http://www.w3.org/2000/svg">
    <rect x="0.5" y="0.5" width="27" height="28" rx="13.5" fill="white"/>
    <rect x="0.5" y="0.5" width="27" height="28" rx="13.5" stroke="#CDCDCD"/>
    <path d="M14 14C14.7956 14 15.5587 13.6839 16.1213 13.1213C16.6839 12.5587 17 11.7956 17 11C17 10.2044 16.6839 9.44129 16.1213 8.87868C15.5587 8.31607 14.7956 8 14 8C13.2044 8 12.4413 8.31607 11.8787 8.87868C11.3161 9.44129 11 10.2044 11 11C11 11.7956 11.3161 12.5587 11.8787 13.1213C12.4413 13.6839 13.2044 14 14 14Z" fill="#D0D1DF"/>
    <path d="M18.2385 16.346C17.6104 15.7519 16.8464 15.3005 16.0047 15.0265C15.9065 14.9912 15.7979 14.9912 15.6997 15.0265C15.1796 15.3098 14.5892 15.459 13.9881 15.459C13.3871 15.459 12.7967 15.3098 12.2765 15.0265C12.1804 14.9942 12.0754 14.9942 11.9792 15.0265C10.7662 15.4404 9.72598 16.2089 9.01115 17.2194C8.29632 18.2298 7.94446 19.4291 8.00713 20.6414C8.00713 20.7365 8.04729 20.8277 8.11878 20.895C8.19027 20.9622 8.28723 21 8.38833 21H19.6108C19.7119 21 19.8089 20.9622 19.8803 20.895C19.9518 20.8277 19.992 20.7365 19.992 20.6414C20.0354 19.8499 19.9018 19.0586 19.5998 18.3187C19.2977 17.5788 18.834 16.9067 18.2385 16.346Z" fill="#D0D1DF"/>
</svg>
